<svg xmlns="http://www.w3.org/2000/svg" version="1.1" xmlns:xlink="http://www.w3.org/1999/xlink" width="289.19" height="300"><svg id="SvgjsSvg1039" data-name="Layer 1" xmlns="http://www.w3.org/2000/svg" viewBox="0 0 289.19 300">
  <defs>
    <style>
      .cls-1 {
        fill: #2d2a25;
      }
    </style>
  </defs>
  <g>
    <path class="cls-1" d="M111,286.02c-1.36-1.36-2.62-2.78-3.77-4.26-1.96-2.49-3.63-5.14-5.02-7.88-3.03-6-4.72-12.52-5.06-19.09-.05-.76-.07-1.54-.07-2.31,0-1.86.1-3.72.31-5.57.08-.77.19-1.54.31-2.31,1.09-6.72,3.59-13.25,7.55-19.09,1.66-2.45,3.57-4.79,5.74-6.97l.92-.92,19.29-19.39h0l13.79-13.87-.05-.05,19.79-19.88c3.61-3.62,6.04-7.96,7.3-12.56.21-.76.39-1.53.54-2.31.35-1.84.51-3.71.5-5.57,0-.77-.04-1.55-.11-2.31-.56-6.47-3.31-12.79-8.24-17.74-.47-.47-.95-.92-1.43-1.35-10.71-9.38-26.73-9.38-37.43,0-.49.43-.97.88-1.43,1.35-4.93,4.95-7.67,11.27-8.24,17.74-.07.76-.1,1.54-.11,2.31-.02,1.87.15,3.74.5,5.57.15.78.33,1.55.54,2.31,1.27,4.6,3.7,8.93,7.3,12.56l6.77,6.8-13.44,13.5-5.86-5.89-.92-.92c-2.17-2.18-4.07-4.51-5.73-6.97-3.95-5.84-6.48-12.37-7.56-19.09-.13-.77-.23-1.54-.31-2.31-.21-1.85-.31-3.71-.31-5.57,0-.77.02-1.55.07-2.31.34-6.57,2.03-13.09,5.06-19.09,1.39-2.75,3.06-5.39,5.02-7.88,1.15-1.48,2.41-2.89,3.76-4.26,18.55-18.64,48.63-18.64,67.18,0,1.36,1.36,2.62,2.78,3.77,4.26,1.96,2.49,3.63,5.14,5.02,7.88,3.03,6,4.72,12.52,5.06,19.09.05.76.07,1.54.07,2.31,0,1.86-.1,3.72-.31,5.57-.08.77-.19,1.54-.31,2.31-1.09,6.72-3.59,13.25-7.55,19.09-1.66,2.45-3.57,4.79-5.74,6.97l-.92.92-19.29,19.39h0l-13.79,13.87.05.05-19.79,19.88c-3.61,3.62-6.04,7.96-7.3,12.56-.21.77-.39,1.53-.54,2.31-.35,1.84-.51,3.71-.5,5.57,0,.77.04,1.55.11,2.31.56,6.47,3.31,12.79,8.24,17.74.47.47.95.92,1.43,1.35,10.71,9.38,26.73,9.38,37.43,0,.49-.43.97-.88,1.43-1.35,4.93-4.95,7.67-11.27,8.24-17.74.07-.76.1-1.54.11-2.31.02-1.87-.15-3.74-.5-5.57-.15-.78-.33-1.55-.54-2.31-1.27-4.6-3.7-8.93-7.3-12.56l-6.77-6.8,13.44-13.5,5.86,5.89.92.92c2.17,2.18,4.07,4.51,5.73,6.97,3.95,5.84,6.48,12.37,7.56,19.09.13.77.23,1.54.31,2.31.21,1.85.31,3.71.31,5.57,0,.77-.02,1.55-.07,2.31-.34,6.57-2.03,13.09-5.06,19.09-1.39,2.75-3.06,5.39-5.02,7.88-1.15,1.48-2.41,2.89-3.76,4.26-18.55,18.64-48.63,18.64-67.18,0h0Z"></path>
    <path class="cls-1" d="M124.1,254.79h40.99c-.54,4.59-2.59,8.84-5.9,12.16-8.05,8.08-21.15,8.08-29.21,0-3.3-3.32-5.35-7.57-5.89-12.16h0Z"></path>
    <path class="cls-1" d="M144.59,170.97h0c-1.63,0-3.2-.65-4.35-1.81l-10.25-10.3c-2.02-2.03-3.56-4.39-4.58-6.98h38.37c-1.02,2.59-2.57,4.95-4.58,6.98l-10.25,10.3c-1.15,1.16-2.72,1.81-4.35,1.81h0Z"></path>
  </g>
  <g>
    <g>
      <ellipse class="cls-1" cx="59.18" cy="67.78" rx="30.43" ry="35.71" transform="translate(-30.5 60.43) rotate(-44.19)"></ellipse>
      <ellipse class="cls-1" cx="39.59" cy="143.4" rx="39.59" ry="33.9"></ellipse>
      <ellipse class="cls-1" cx="59.17" cy="208.92" rx="24.84" ry="21.17" transform="translate(-131.87 105.72) rotate(-45.81)"></ellipse>
    </g>
    <g>
      <ellipse class="cls-1" cx="230.02" cy="67.79" rx="35.71" ry="30.43" transform="translate(21.08 185.47) rotate(-45.81)"></ellipse>
      <path class="cls-1" d="M249.6,177.3c-21.87,0-39.59-15.18-39.59-33.9s17.73-33.9,39.59-33.9,39.59,15.18,39.59,33.9-17.73,33.9-39.59,33.9Z"></path>
      <ellipse class="cls-1" cx="230.02" cy="208.9" rx="21.17" ry="24.84" transform="translate(-80.52 219.44) rotate(-44.19)"></ellipse>
    </g>
  </g>
  <ellipse class="cls-1" cx="144.59" cy="37.51" rx="31.82" ry="37.51"></ellipse>
</svg><style>@media (prefers-color-scheme: light) { :root { filter: none; } }
@media (prefers-color-scheme: dark) { :root { filter: none; } }
</style></svg>