<?xml version="1.0" encoding="UTF-8"?>
<svg id="Layer_1" data-name="Layer 1" xmlns="http://www.w3.org/2000/svg" viewBox="0 0 948.86 198.04">
  <defs>
    <style>
      .cls-1 {
        fill: #2d2a25;
      }
    </style>
  </defs>
  <g>
    <g>
      <path class="cls-1" d="M290.78,44.72l-14.08,48.54h-11.01l-17.25-67.98h11.99l11.26,45.13,13.84-45.13h10.48l13.74,44.69,11.5-44.69h11.89l-17.35,67.98h-10.92l-14.08-48.54Z"/>
      <path class="cls-1" d="M352.43,25.33v11.45h-11.5v-11.45h11.5ZM352.43,43.65v49.61h-11.5v-49.61h11.5Z"/>
      <path class="cls-1" d="M401.16,43.65v8.87l-26.17,31.09h26.17v9.65h-41.42v-8.09l25.78-31.43h-25.78v-10.09h41.42Z"/>
      <path class="cls-1" d="M409.93,43.65h11.5v5.31c1.95-2.24,3.97-3.85,6.07-4.82,2.09-.97,4.12-1.46,6.07-1.46,1.17,0,2.29.11,3.36.34s2.12.66,3.14,1.29c1.02.63,2.02,1.53,3,2.68.97,1.15,1.97,2.66,2.97,4.51,1.17-1.69,2.38-3.1,3.63-4.24,1.25-1.14,2.52-2.05,3.8-2.73,1.28-.68,2.57-1.16,3.85-1.44,1.28-.28,2.54-.41,3.78-.41,2.5,0,4.77.45,6.8,1.34,2.03.9,3.77,2.12,5.21,3.68s2.56,3.4,3.34,5.51c.78,2.11,1.17,4.39,1.17,6.82v33.24h-11.45v-32.75c0-1.59-.2-2.91-.61-3.95-.41-1.04-.93-1.87-1.58-2.49-.65-.62-1.37-1.06-2.17-1.32s-1.6-.39-2.41-.39c-1.17,0-2.32.28-3.46.83-1.14.55-2.17,1.32-3.09,2.29s-1.67,2.12-2.24,3.44c-.57,1.32-.85,2.74-.85,4.26v30.07h-11.5v-32.75c0-1.59-.2-2.91-.61-3.95-.41-1.04-.92-1.87-1.53-2.49-.62-.62-1.29-1.06-2.02-1.32-.73-.26-1.44-.39-2.12-.39-1.46,0-2.83.36-4.12,1.07s-2.4,1.62-3.34,2.73-1.69,2.32-2.24,3.65c-.55,1.33-.83,2.6-.83,3.8v29.63h-11.5v-49.61Z"/>
      <path class="cls-1" d="M534.79,91.95c-.94.58-1.77,1.03-2.49,1.34-.71.31-1.36.54-1.93.68-.56.15-1.06.23-1.46.24-.41.02-.76.03-1.05.03-1.17,0-2.23-.2-3.19-.61-.96-.41-1.8-.97-2.54-1.68s-1.36-1.54-1.9-2.46-.98-1.91-1.34-2.95c-1.46,1.53-2.84,2.79-4.14,3.78-1.3.99-2.58,1.78-3.85,2.36-1.27.59-2.54.99-3.8,1.22-1.27.23-2.58.34-3.95.34-2.21,0-4.28-.35-6.21-1.05-1.93-.7-3.62-1.69-5.04-2.97-1.43-1.28-2.56-2.83-3.39-4.65s-1.24-3.83-1.24-6.04c0-1.92.43-3.57,1.29-4.97.86-1.4,2-2.61,3.41-3.65s3.02-1.93,4.82-2.68c1.8-.75,3.64-1.42,5.51-2.02,1.87-.6,3.7-1.18,5.51-1.73,1.8-.55,3.41-1.14,4.82-1.75s2.55-1.31,3.41-2.07c.86-.76,1.29-1.68,1.29-2.75s-.27-1.91-.8-2.61c-.54-.7-1.22-1.27-2.04-1.7s-1.75-.76-2.78-.95c-1.03-.19-2.02-.29-3-.29s-1.95.14-2.92.41c-.97.28-1.86.71-2.66,1.29-.8.59-1.47,1.34-2.02,2.27-.55.93-.91,2.02-1.07,3.29h-11.65c.19-2.86.9-5.35,2.12-7.48,1.22-2.13,2.77-3.89,4.65-5.29,1.88-1.4,4-2.44,6.36-3.12,2.36-.68,4.75-1.02,7.19-1.02,2.66,0,5.21.29,7.63.88,2.42.59,4.55,1.51,6.41,2.78,1.85,1.27,3.33,2.88,4.43,4.85s1.65,4.33,1.65,7.09v24.07c0,.65.21,1.24.64,1.78.42.54,1.04.8,1.85.8.07,0,.41-.04,1.03-.12.61-.08,1.43-.4,2.44-.95v8.09ZM517.34,69.48c-.74.46-1.72.86-2.92,1.22s-2.5.72-3.9,1.1c-1.4.37-2.8.77-4.22,1.2-1.41.42-2.69.92-3.82,1.49-1.14.57-2.07,1.23-2.8,2-.73.76-1.1,1.66-1.1,2.7s.16,1.87.49,2.58c.32.71.76,1.3,1.29,1.75s1.14.79,1.83,1c.68.21,1.36.32,2.05.32,2.24,0,4.52-.76,6.85-2.27s4.41-3.79,6.26-6.85v-6.24Z"/>
      <path class="cls-1" d="M540.68,43.65h11.5v5.85c2.14-2.44,4.4-4.18,6.75-5.24,2.36-1.06,4.78-1.58,7.29-1.58s4.8.37,6.8,1.12c2,.75,3.69,1.81,5.07,3.19,1.38,1.38,2.44,3.04,3.19,4.97.75,1.93,1.12,4.09,1.12,6.46v34.85h-11.5v-32.99c0-1.27-.18-2.39-.54-3.36s-.84-1.8-1.46-2.48c-.62-.68-1.35-1.2-2.19-1.54-.85-.34-1.74-.51-2.68-.51-1.53,0-3,.32-4.43.95-1.43.63-2.69,1.48-3.78,2.53-1.09,1.06-1.97,2.27-2.63,3.66-.66,1.38-1,2.82-1,4.31v29.44h-11.5v-49.61Z"/>
      <path class="cls-1" d="M608.47,25.28v28.02h30.75v-28.02h11.5v67.98h-11.5v-30.41h-30.75v30.41h-11.5V25.28h11.5Z"/>
      <path class="cls-1" d="M673.96,71.53c.16,1.79.57,3.48,1.22,5.09.65,1.61,1.48,3.02,2.49,4.24,1.01,1.22,2.18,2.19,3.51,2.9,1.33.72,2.76,1.07,4.29,1.07,2.83,0,5.17-.77,7.04-2.31,1.87-1.54,3.35-3.86,4.46-6.95h10.63c-.65,2.96-1.7,5.59-3.14,7.89-1.45,2.31-3.16,4.26-5.14,5.85-1.98,1.59-4.17,2.81-6.55,3.66s-4.85,1.27-7.38,1.27c-3.57,0-6.79-.71-9.65-2.14s-5.29-3.35-7.31-5.75c-2.02-2.4-3.57-5.21-4.66-8.41-1.09-3.2-1.63-6.57-1.63-10.11,0-3.31.54-6.49,1.63-9.53,1.09-3.04,2.64-5.72,4.66-8.04,2.01-2.32,4.46-4.17,7.33-5.53,2.87-1.36,6.1-2.05,9.67-2.05s6.56.63,9.36,1.88c2.8,1.25,5.18,2.97,7.16,5.14,1.98,2.18,3.5,4.75,4.56,7.72,1.06,2.97,1.58,6.18,1.58,9.62v4.48h-34.11ZM696.38,62.8c-.16-1.56-.55-2.97-1.17-4.24s-1.41-2.36-2.39-3.29-2.13-1.64-3.46-2.14-2.79-.76-4.38-.76c-1.46,0-2.82.28-4.07.83-1.25.55-2.36,1.3-3.31,2.24-.96.94-1.75,2.05-2.39,3.31-.63,1.27-1.05,2.62-1.24,4.04h22.42Z"/>
      <path class="cls-1" d="M716.36,43.65h8.48l1.9,6.09c1.49-2.34,3.04-4.1,4.65-5.29,1.61-1.19,3.37-1.78,5.29-1.78.58,0,1.52.12,2.83.36,1.3.24,2.86.87,4.68,1.88v9.94c-1.2-.46-2.23-.81-3.09-1.07s-1.58-.45-2.14-.56c-.57-.11-1.01-.18-1.32-.19-.31-.02-.53-.03-.66-.03-1.43,0-2.71.3-3.85.9-1.14.6-2.1,1.4-2.88,2.39-.78.99-1.38,2.14-1.8,3.44-.42,1.3-.63,2.65-.63,4.04v29.48h-11.45v-49.61Z"/>
      <path class="cls-1" d="M759.98,25.33v11.45h-11.5v-11.45h11.5ZM759.98,43.65v49.61h-11.5v-49.61h11.5Z"/>
      <path class="cls-1" d="M785.22,30.01v13.64h9.11v9.4h-9.11v27c0,1.36.32,2.5.95,3.41.63.91,1.52,1.36,2.66,1.36.36,0,1.07-.06,2.14-.17,1.07-.11,2.55-.54,4.43-1.29v9.06c-2.01.78-3.92,1.28-5.7,1.49-1.79.21-3.28.32-4.48.32-1.53,0-2.99-.31-4.39-.93-1.4-.62-2.62-1.49-3.68-2.61-1.06-1.12-1.89-2.48-2.51-4.07s-.92-3.36-.92-5.31v-28.26h-7.12v-9.4h7.12v-13.64h11.5Z"/>
      <path class="cls-1" d="M846.72,91.95c-.94.58-1.77,1.03-2.49,1.34-.71.31-1.35.54-1.92.68-.57.15-1.06.23-1.46.24-.41.02-.76.03-1.05.03-1.17,0-2.23-.2-3.19-.61-.96-.41-1.8-.97-2.54-1.68s-1.36-1.54-1.9-2.46-.98-1.91-1.34-2.95c-1.46,1.53-2.84,2.79-4.14,3.78-1.3.99-2.58,1.78-3.85,2.36-1.27.59-2.54.99-3.8,1.22-1.27.23-2.58.34-3.95.34-2.21,0-4.28-.35-6.21-1.05s-3.61-1.69-5.04-2.97c-1.43-1.28-2.56-2.83-3.38-4.65-.83-1.82-1.24-3.83-1.24-6.04,0-1.92.43-3.57,1.29-4.97.86-1.4,2-2.61,3.41-3.65,1.42-1.04,3.02-1.93,4.83-2.68,1.8-.75,3.64-1.42,5.51-2.02,1.87-.6,3.7-1.18,5.51-1.73,1.8-.55,3.41-1.14,4.82-1.75s2.55-1.31,3.41-2.07c.86-.76,1.29-1.68,1.29-2.75s-.27-1.91-.8-2.61c-.54-.7-1.22-1.27-2.05-1.7-.83-.44-1.75-.76-2.78-.95-1.02-.19-2.02-.29-3-.29s-1.95.14-2.92.41c-.97.28-1.86.71-2.66,1.29-.8.59-1.47,1.34-2.02,2.27s-.91,2.02-1.07,3.29h-11.65c.2-2.86.9-5.35,2.12-7.48,1.22-2.13,2.77-3.89,4.65-5.29,1.89-1.4,4-2.44,6.36-3.12,2.35-.68,4.75-1.02,7.19-1.02,2.66,0,5.21.29,7.63.88,2.42.59,4.55,1.51,6.41,2.78s3.33,2.88,4.43,4.85c1.11,1.97,1.66,4.33,1.66,7.09v24.07c0,.65.21,1.24.63,1.78s1.04.8,1.85.8c.07,0,.41-.04,1.02-.12s1.43-.4,2.44-.95v8.09ZM829.27,69.48c-.75.46-1.72.86-2.92,1.22-1.2.36-2.5.72-3.9,1.1-1.4.37-2.8.77-4.21,1.2-1.41.42-2.69.92-3.83,1.49s-2.07,1.23-2.8,2c-.73.76-1.1,1.66-1.1,2.7s.16,1.87.49,2.58c.33.71.76,1.3,1.29,1.75s1.14.79,1.83,1c.68.21,1.37.32,2.05.32,2.24,0,4.52-.76,6.85-2.27s4.41-3.79,6.26-6.85v-6.24Z"/>
      <path class="cls-1" d="M894.53,92.63c0,3.48-.61,6.53-1.83,9.16-1.22,2.63-2.83,4.82-4.85,6.58-2.02,1.75-4.33,3.08-6.95,3.97-2.62.89-5.32,1.34-8.11,1.34-2.44,0-4.74-.34-6.9-1.02-2.16-.68-4.16-1.73-5.99-3.14-1.83-1.41-3.49-3.22-4.95-5.41-1.46-2.19-2.71-4.81-3.75-7.87h11.26c1.27,2.83,2.75,4.86,4.43,6.12,1.69,1.25,3.66,1.88,5.9,1.88,1.4,0,2.72-.28,3.97-.83,1.25-.55,2.34-1.32,3.26-2.32s1.66-2.18,2.19-3.56c.54-1.38.8-2.88.8-4.51v-4.34c-1.59,1.76-3.46,3.12-5.6,4.09-2.14.97-4.27,1.46-6.38,1.46-3.31,0-6.27-.68-8.87-2.02-2.6-1.35-4.8-3.19-6.6-5.53-1.8-2.34-3.18-5.08-4.12-8.21-.94-3.13-1.41-6.47-1.41-10.01s.5-6.88,1.49-10.01c.99-3.13,2.4-5.87,4.24-8.21,1.83-2.34,4.06-4.18,6.67-5.53,2.62-1.35,5.55-2.02,8.8-2.02.88,0,1.8.06,2.75.17s1.94.36,2.95.76c1.01.39,2.02.95,3.05,1.68,1.02.73,2.04,1.71,3.04,2.95v-4.58h11.5v48.98ZM883.03,67.92c-.03-2.14-.28-4.16-.75-6.04-.47-1.88-1.14-3.53-2-4.95s-1.92-2.53-3.17-3.34c-1.25-.81-2.67-1.22-4.26-1.22s-3.18.42-4.58,1.27c-1.4.84-2.62,1.99-3.66,3.44s-1.85,3.14-2.44,5.09c-.58,1.95-.88,4.04-.88,6.29s.29,4.35.88,6.34c.59,1.98,1.4,3.72,2.44,5.21,1.04,1.5,2.26,2.67,3.66,3.53,1.4.86,2.92,1.29,4.58,1.29s3.07-.42,4.34-1.27,2.33-2.01,3.19-3.49c.86-1.48,1.52-3.2,1.97-5.17.46-1.96.68-4.07.68-6.31v-.68Z"/>
      <path class="cls-1" d="M914.75,71.53c.16,1.79.57,3.48,1.22,5.09.65,1.61,1.48,3.02,2.49,4.24,1.01,1.22,2.18,2.19,3.51,2.9,1.33.72,2.76,1.07,4.29,1.07,2.83,0,5.17-.77,7.04-2.31s3.35-3.86,4.46-6.95h10.63c-.65,2.96-1.7,5.59-3.14,7.89-1.45,2.31-3.16,4.26-5.14,5.85-1.98,1.59-4.17,2.81-6.55,3.66-2.39.84-4.85,1.27-7.38,1.27-3.57,0-6.79-.71-9.65-2.14-2.86-1.43-5.29-3.35-7.31-5.75-2.02-2.4-3.57-5.21-4.66-8.41-1.09-3.2-1.63-6.57-1.63-10.11,0-3.31.54-6.49,1.63-9.53,1.09-3.04,2.64-5.72,4.66-8.04,2.01-2.32,4.46-4.17,7.33-5.53,2.87-1.36,6.1-2.05,9.67-2.05s6.56.63,9.36,1.88c2.8,1.25,5.18,2.97,7.16,5.14,1.98,2.18,3.5,4.75,4.56,7.72,1.06,2.97,1.58,6.18,1.58,9.62v4.48h-34.11ZM937.17,62.8c-.16-1.56-.55-2.97-1.17-4.24s-1.41-2.36-2.39-3.29-2.13-1.64-3.46-2.14-2.79-.76-4.38-.76c-1.46,0-2.82.28-4.07.83-1.25.55-2.36,1.3-3.31,2.24-.96.94-1.75,2.05-2.39,3.31-.63,1.27-1.05,2.62-1.24,4.04h22.42Z"/>
    </g>
    <g>
      <path class="cls-1" d="M253.78,126.22h14.04c1.81,0,3.4.3,4.78.9,1.38.6,2.54,1.37,3.48,2.33.94.95,1.65,2.03,2.14,3.23s.73,2.39.73,3.59c0,1.28-.24,2.53-.73,3.74-.49,1.21-1.21,2.3-2.15,3.24s-2.11,1.7-3.5,2.28-2.97.86-4.76.86h-10.1v15.13h-3.93v-35.29ZM257.71,143.06h10.1c.96,0,1.87-.18,2.74-.53s1.64-.84,2.3-1.47c.66-.63,1.19-1.35,1.58-2.18.39-.83.58-1.72.58-2.68s-.18-1.82-.54-2.62c-.36-.8-.87-1.49-1.52-2.09-.65-.59-1.41-1.05-2.29-1.38-.88-.33-1.83-.49-2.86-.49h-10.1v13.43Z"/>
      <path class="cls-1" d="M286.12,135.76h3.93l-.16,4.27c.83-1.4,1.81-2.47,2.94-3.2,1.13-.73,2.44-1.1,3.95-1.1.12,0,.3,0,.52.01s.45.03.69.05c.24.03.47.06.69.1s.39.09.52.14v3.82c-.41-.13-.87-.24-1.38-.32s-.9-.11-1.14-.11c-1.05,0-1.98.19-2.79.56-.82.37-1.51.87-2.07,1.51-.57.63-1,1.36-1.3,2.18-.3.82-.45,1.67-.45,2.57v15.28h-3.93v-25.75Z"/>
      <path class="cls-1" d="M301.97,148.71c0-1.82.26-3.54.78-5.17.52-1.63,1.29-3.05,2.31-4.28,1.02-1.22,2.28-2.2,3.77-2.92,1.5-.72,3.21-1.09,5.14-1.09s3.68.36,5.18,1.09c1.51.73,2.78,1.7,3.81,2.92,1.04,1.22,1.83,2.65,2.37,4.28s.81,3.35.81,5.17-.27,3.51-.81,5.12c-.54,1.61-1.33,3.02-2.37,4.24-1.04,1.21-2.31,2.18-3.81,2.88-1.51.71-3.24,1.06-5.18,1.06s-3.65-.35-5.14-1.06c-1.5-.71-2.76-1.67-3.77-2.88-1.02-1.21-1.79-2.63-2.31-4.24-.52-1.61-.78-3.32-.78-5.12ZM305.9,148.71c0,1.35.19,2.63.56,3.83.37,1.21.9,2.27,1.59,3.19.69.92,1.54,1.65,2.54,2.19s2.13.81,3.39.81,2.4-.27,3.42-.81c1.02-.54,1.89-1.27,2.6-2.19.72-.92,1.27-1.98,1.65-3.19.38-1.2.57-2.48.57-3.83s-.19-2.63-.57-3.86-.93-2.3-1.65-3.23-1.59-1.66-2.6-2.21c-1.02-.55-2.16-.82-3.42-.82s-2.39.27-3.39.82c-1,.55-1.85,1.28-2.54,2.21s-1.22,2-1.59,3.23c-.37,1.22-.56,2.51-.56,3.86Z"/>
      <path class="cls-1" d="M332.3,126.04h3.93v13.35c.46-.61.99-1.17,1.58-1.68.59-.51,1.22-.95,1.89-1.32s1.34-.65,2.03-.85c.69-.2,1.36-.3,1.99-.3,1.83,0,3.42.37,4.79,1.1,1.36.73,2.51,1.72,3.43,2.97.92,1.25,1.61,2.7,2.07,4.35.46,1.65.69,3.39.69,5.21s-.23,3.53-.7,5.14c-.47,1.6-1.17,2.99-2.1,4.18-.93,1.18-2.09,2.11-3.47,2.79-1.38.68-2.99,1.02-4.81,1.02-1.4,0-2.76-.37-4.08-1.1-1.32-.73-2.42-1.82-3.31-3.25v3.85h-3.93v-35.46ZM336.23,148.88c0,1.37.16,2.64.48,3.83.32,1.19.79,2.23,1.41,3.11.62.89,1.38,1.58,2.27,2.09s1.92.76,3.07.76,2.21-.25,3.11-.76,1.67-1.2,2.3-2.09c.63-.89,1.1-1.92,1.42-3.11.32-1.19.48-2.47.48-3.83s-.16-2.67-.48-3.91c-.32-1.24-.79-2.33-1.42-3.29-.63-.95-1.4-1.71-2.3-2.26s-1.94-.84-3.11-.84-2.15.27-3.04.8c-.9.53-1.65,1.24-2.27,2.13-.62.89-1.09,1.9-1.42,3.04-.33,1.14-.49,2.31-.49,3.5v.83Z"/>
      <path class="cls-1" d="M382.69,161.71c-.25.09-.57.16-.97.22-.4.06-.73.09-1,.09-1.12,0-2.04-.4-2.78-1.19-.73-.79-1.15-2.02-1.24-3.69-.85,1.05-1.69,1.89-2.51,2.53-.82.64-1.65,1.13-2.47,1.48-.82.34-1.65.58-2.47.7-.83.12-1.66.18-2.51.18-1.1,0-2.13-.17-3.08-.51-.96-.34-1.79-.82-2.51-1.44-.72-.63-1.28-1.37-1.69-2.25-.41-.88-.61-1.86-.61-2.94s.25-2,.74-2.77c.5-.77,1.16-1.43,1.98-1.99.82-.56,1.75-1.02,2.79-1.4,1.04-.38,2.1-.72,3.19-1.01,1.09-.29,2.16-.58,3.2-.85s1.98-.56,2.8-.89c.83-.32,1.48-.7,1.98-1.13.5-.43.74-.97.74-1.61,0-.74-.15-1.4-.45-1.99-.3-.58-.73-1.07-1.28-1.47-.55-.39-1.21-.7-1.99-.9-.78-.2-1.64-.3-2.58-.3-.8,0-1.56.1-2.27.29-.72.2-1.35.48-1.91.85s-1.02.83-1.4,1.37c-.37.54-.61,1.16-.72,1.87h-4.09c.07-1.25.42-2.35,1.04-3.31.62-.96,1.41-1.77,2.37-2.42.96-.65,2.04-1.14,3.26-1.48,1.21-.34,2.46-.51,3.74-.51,1.38,0,2.69.16,3.92.48,1.23.32,2.32.81,3.26,1.47.94.66,1.68,1.49,2.23,2.49.55,1,.82,2.19.82,3.56v13.3c0,.66.17,1.18.52,1.58.35.4.77.59,1.29.59.11,0,.21,0,.32-.03s.22-.04.34-.08v3.09ZM376.29,147.21c-.55.56-1.26,1.01-2.14,1.37-.88.35-1.82.67-2.82.96-1,.29-2.01.56-3.02.84-1.01.27-1.93.59-2.75.96-.82.37-1.49.82-2.01,1.35-.51.53-.77,1.2-.77,2.01,0,.72.13,1.34.4,1.85.27.51.61.92,1.04,1.25.43.33.91.57,1.46.72.55.15,1.11.23,1.67.23,1.63,0,3.23-.47,4.8-1.42,1.57-.95,2.95-2.4,4.13-4.35v-5.77Z"/>
      <path class="cls-1" d="M393.38,128.62v7.13h4.78v3.19h-4.78v16.87c0,.56.07,1.02.22,1.4s.35.68.61.91c.26.23.56.39.92.48s.73.14,1.14.14c.51,0,1.03-.05,1.55-.14s.98-.18,1.37-.27v3.04c-.46.13-1.06.27-1.79.42-.74.14-1.49.22-2.27.22-.67,0-1.35-.09-2.03-.27-.68-.18-1.29-.46-1.83-.85s-.98-.89-1.32-1.51c-.34-.62-.51-1.37-.51-2.26v-18.19h-4.15v-3.19h4.15v-7.13h3.93Z"/>
      <path class="cls-1" d="M406.94,149.26c.02,1.18.23,2.34.65,3.48.42,1.14.98,2.15,1.7,3.04s1.56,1.6,2.54,2.15c.97.55,2.03.82,3.16.82,3.84,0,6.39-1.69,7.63-5.06h3.62c-.3,1.32-.81,2.49-1.53,3.52-.72,1.03-1.58,1.9-2.59,2.62-1.01.71-2.13,1.26-3.35,1.63-1.22.37-2.48.56-3.77.56-1.86,0-3.54-.38-5.04-1.14-1.5-.76-2.77-1.77-3.83-3.04s-1.87-2.73-2.44-4.39c-.58-1.66-.86-3.4-.86-5.22,0-1.7.28-3.34.85-4.91.57-1.57,1.38-2.95,2.43-4.15,1.05-1.2,2.33-2.15,3.83-2.86s3.18-1.06,5.04-1.06,3.43.32,4.88.97c1.44.65,2.68,1.54,3.71,2.66,1.03,1.12,1.82,2.45,2.37,3.97.55,1.53.82,3.17.82,4.92v1.49h-19.8ZM422.67,146.38c-.03-1.08-.24-2.09-.62-3.04s-.91-1.77-1.59-2.48c-.68-.71-1.51-1.27-2.49-1.67-.97-.4-2.07-.61-3.27-.61-1.1,0-2.12.22-3.06.66s-1.75,1.02-2.44,1.75c-.69.72-1.24,1.56-1.64,2.49s-.61,1.9-.62,2.9h15.74Z"/>
      <path class="cls-1" d="M472.94,136.26c0,.88-.11,1.74-.33,2.58-.22.84-.55,1.64-1,2.39-.44.75-.99,1.44-1.64,2.06-.65.62-1.4,1.16-2.27,1.62.97.24,1.77.59,2.38,1.08s1.09,1.04,1.44,1.67c.34.63.59,1.32.72,2.07s.2,1.51.2,2.29v5.31c0,.76.11,1.49.33,2.21.22.72.5,1.37.84,1.96h-4.28c-.18-.27-.31-.58-.41-.92-.1-.34-.17-.7-.22-1.08-.05-.37-.09-.73-.11-1.07-.02-.35-.03-.65-.03-.9v-5.62c0-.67-.12-1.34-.36-2.01-.24-.66-.63-1.26-1.17-1.78s-1.25-.94-2.11-1.27-1.92-.48-3.16-.48h-11.22v15.13h-3.93v-35.29h15.15c1.81,0,3.41.3,4.8.9,1.39.6,2.56,1.37,3.51,2.33s1.67,2.03,2.15,3.23.73,2.39.73,3.59ZM450.53,143.06h11.22c.97,0,1.9-.18,2.76-.53.87-.35,1.64-.84,2.3-1.47.66-.63,1.19-1.35,1.58-2.18s.59-1.72.59-2.68-.18-1.82-.54-2.62c-.36-.8-.87-1.49-1.52-2.09-.65-.59-1.41-1.05-2.3-1.38-.89-.33-1.84-.49-2.87-.49h-11.22v13.43Z"/>
      <path class="cls-1" d="M484.34,149.26c.02,1.18.23,2.34.65,3.48.42,1.14.98,2.15,1.7,3.04s1.56,1.6,2.54,2.15c.97.55,2.03.82,3.16.82,3.84,0,6.39-1.69,7.63-5.06h3.62c-.3,1.32-.81,2.49-1.53,3.52-.72,1.03-1.58,1.9-2.59,2.62-1.01.71-2.13,1.26-3.35,1.63-1.22.37-2.48.56-3.77.56-1.86,0-3.54-.38-5.04-1.14-1.5-.76-2.77-1.77-3.83-3.04-1.05-1.27-1.87-2.73-2.44-4.39-.58-1.66-.86-3.4-.86-5.22,0-1.7.28-3.34.85-4.91.57-1.57,1.38-2.95,2.43-4.15,1.05-1.2,2.33-2.15,3.83-2.86s3.18-1.06,5.04-1.06,3.43.32,4.88.97c1.44.65,2.68,1.54,3.71,2.66,1.03,1.12,1.82,2.45,2.37,3.97.55,1.53.82,3.17.82,4.92v1.49h-19.8ZM500.08,146.38c-.03-1.08-.24-2.09-.62-3.04s-.91-1.77-1.59-2.48c-.68-.71-1.51-1.27-2.49-1.67-.97-.4-2.07-.61-3.27-.61-1.1,0-2.12.22-3.06.66s-1.75,1.02-2.44,1.75c-.69.72-1.24,1.56-1.64,2.49s-.61,1.9-.62,2.9h15.74Z"/>
      <path class="cls-1" d="M511.72,153.69c.02.91.18,1.69.51,2.33.32.64.75,1.16,1.3,1.57s1.19.7,1.93.89c.73.19,1.55.28,2.43.28.71,0,1.46-.06,2.25-.19.79-.13,1.51-.34,2.17-.65s1.2-.72,1.62-1.24c.42-.52.64-1.18.64-1.97,0-.73-.23-1.34-.69-1.85-.46-.51-1.06-.95-1.81-1.33-.74-.38-1.59-.73-2.55-1.05-.96-.32-1.93-.65-2.92-.97-.99-.33-1.97-.69-2.92-1.09-.96-.4-1.81-.87-2.55-1.43-.75-.56-1.35-1.21-1.81-1.97-.46-.76-.69-1.67-.69-2.73,0-1.13.26-2.13.77-3s1.2-1.6,2.06-2.2c.86-.6,1.85-1.05,2.96-1.37,1.12-.31,2.28-.47,3.48-.47,1.37,0,2.63.16,3.8.47,1.17.31,2.19.78,3.07,1.39.88.62,1.58,1.38,2.1,2.3.52.92.81,1.98.87,3.17h-4.04c-.09-.67-.3-1.27-.63-1.77-.33-.51-.75-.92-1.28-1.25s-1.11-.57-1.78-.73c-.66-.16-1.37-.24-2.11-.24-.87,0-1.63.1-2.3.3-.66.2-1.22.48-1.68.82-.45.35-.79.75-1.02,1.2-.23.46-.35.93-.35,1.42,0,.66.23,1.23.69,1.71s1.06.92,1.81,1.3c.74.39,1.59.75,2.55,1.08.96.33,1.93.67,2.92,1.01.99.34,1.97.72,2.92,1.13.96.4,1.81.87,2.55,1.4.75.53,1.35,1.15,1.81,1.86s.69,1.54.69,2.51c0,1.38-.29,2.56-.87,3.53-.58.97-1.35,1.76-2.32,2.38-.98.61-2.11,1.07-3.39,1.35-1.28.29-2.63.43-4.03.43s-2.66-.17-3.88-.52c-1.22-.34-2.3-.86-3.21-1.56-.92-.69-1.66-1.56-2.22-2.59s-.86-2.25-.92-3.66h4.07Z"/>
      <path class="cls-1" d="M536.87,149.26c.02,1.18.23,2.34.65,3.48.42,1.14.98,2.15,1.7,3.04s1.56,1.6,2.54,2.15c.97.55,2.03.82,3.16.82,3.85,0,6.39-1.69,7.63-5.06h3.61c-.3,1.32-.81,2.49-1.53,3.52-.72,1.03-1.58,1.9-2.59,2.62-1.01.71-2.13,1.26-3.35,1.63-1.22.37-2.48.56-3.77.56-1.86,0-3.54-.38-5.04-1.14-1.5-.76-2.77-1.77-3.83-3.04-1.06-1.27-1.87-2.73-2.45-4.39-.58-1.66-.87-3.4-.87-5.22,0-1.7.28-3.34.85-4.91.57-1.57,1.38-2.95,2.43-4.15,1.05-1.2,2.33-2.15,3.83-2.86,1.5-.71,3.18-1.06,5.04-1.06s3.43.32,4.88.97c1.44.65,2.68,1.54,3.71,2.66,1.03,1.12,1.82,2.45,2.37,3.97.55,1.53.82,3.17.82,4.92v1.49h-19.8ZM552.6,146.38c-.04-1.08-.25-2.09-.63-3.04-.38-.94-.91-1.77-1.59-2.48-.68-.71-1.51-1.27-2.49-1.67-.97-.4-2.06-.61-3.27-.61-1.1,0-2.12.22-3.06.66-.94.44-1.76,1.02-2.45,1.75-.69.72-1.24,1.56-1.64,2.49-.4.94-.61,1.9-.62,2.9h15.74Z"/>
      <path class="cls-1" d="M584.63,161.71c-.25.09-.57.16-.97.22-.4.06-.73.09-1,.09-1.12,0-2.04-.4-2.78-1.19-.73-.79-1.15-2.02-1.23-3.69-.85,1.05-1.69,1.89-2.51,2.53-.82.64-1.65,1.13-2.47,1.48-.82.34-1.65.58-2.47.7-.82.12-1.66.18-2.51.18-1.1,0-2.13-.17-3.08-.51-.96-.34-1.79-.82-2.51-1.44-.72-.63-1.28-1.37-1.69-2.25s-.61-1.86-.61-2.94.25-2,.75-2.77c.49-.77,1.16-1.43,1.98-1.99.82-.56,1.75-1.02,2.79-1.4,1.04-.38,2.1-.72,3.19-1.01,1.09-.29,2.16-.58,3.2-.85,1.04-.27,1.98-.56,2.8-.89.82-.32,1.48-.7,1.98-1.13.49-.43.74-.97.74-1.61,0-.74-.15-1.4-.45-1.99-.3-.58-.73-1.07-1.28-1.47-.55-.39-1.21-.7-1.99-.9-.78-.2-1.64-.3-2.58-.3-.8,0-1.56.1-2.27.29-.72.2-1.36.48-1.92.85-.56.37-1.02.83-1.39,1.37-.37.54-.61,1.16-.72,1.87h-4.09c.07-1.25.42-2.35,1.04-3.31.62-.96,1.41-1.77,2.37-2.42.96-.65,2.04-1.14,3.26-1.48s2.46-.51,3.74-.51c1.38,0,2.69.16,3.92.48,1.23.32,2.32.81,3.26,1.47.94.66,1.68,1.49,2.23,2.49.55,1,.82,2.19.82,3.56v13.3c0,.66.17,1.18.52,1.58.34.4.77.59,1.29.59.11,0,.21,0,.32-.03.11-.02.22-.04.35-.08v3.09ZM578.22,147.21c-.55.56-1.26,1.01-2.14,1.37-.88.35-1.82.67-2.82.96-1,.29-2.01.56-3.02.84-1.01.27-1.93.59-2.75.96s-1.49.82-2.01,1.35c-.51.53-.77,1.2-.77,2.01,0,.72.13,1.34.4,1.85s.61.92,1.04,1.25.91.57,1.46.72c.55.15,1.11.23,1.67.23,1.63,0,3.23-.47,4.8-1.42,1.57-.95,2.95-2.4,4.13-4.35v-5.77Z"/>
      <path class="cls-1" d="M590.13,135.76h3.93l-.16,4.27c.83-1.4,1.81-2.47,2.94-3.2,1.13-.73,2.44-1.1,3.95-1.1.12,0,.3,0,.52.01s.45.03.69.05c.24.03.47.06.69.1s.39.09.52.14v3.82c-.41-.13-.87-.24-1.38-.32s-.9-.11-1.14-.11c-1.04,0-1.97.19-2.79.56-.82.37-1.51.87-2.07,1.51-.57.63-1,1.36-1.3,2.18s-.45,1.67-.45,2.57v15.28h-3.93v-25.75Z"/>
      <path class="cls-1" d="M624.21,143.49c-.55-1.79-1.35-3.05-2.42-3.79-1.06-.74-2.46-1.11-4.2-1.11-1.22,0-2.31.26-3.27.78-.96.52-1.76,1.22-2.4,2.1-.65.88-1.14,1.89-1.49,3.04-.35,1.14-.52,2.34-.52,3.59s.17,2.58.52,3.84c.35,1.27.85,2.4,1.5,3.39.65.99,1.45,1.8,2.39,2.42s2.01.92,3.22.92c.96,0,1.81-.16,2.55-.48.74-.32,1.39-.76,1.93-1.32.54-.56.99-1.21,1.34-1.95s.61-1.53.77-2.38h4.33c-.2,1.47-.59,2.79-1.18,3.96-.59,1.17-1.36,2.17-2.31,2.99-.95.82-2.06,1.44-3.35,1.87s-2.71.65-4.27.65c-1.33,0-2.53-.19-3.6-.58-1.07-.39-2.03-.92-2.87-1.58-.84-.67-1.58-1.45-2.2-2.35-.62-.9-1.13-1.87-1.53-2.9-.4-1.03-.7-2.1-.89-3.21-.2-1.11-.29-2.21-.29-3.29,0-1.77.28-3.44.83-5,.55-1.56,1.33-2.92,2.35-4.09s2.25-2.08,3.68-2.76c1.44-.68,3.05-1.01,4.84-1.01,1.54,0,2.92.21,4.14.62,1.21.41,2.27.99,3.16,1.72.9.73,1.63,1.61,2.19,2.62s.97,2.11,1.22,3.29h-4.17Z"/>
      <path class="cls-1" d="M638.46,126.04v13.25c.55-.78,1.15-1.42,1.81-1.94.65-.51,1.35-.93,2.09-1.24.73-.31,1.51-.54,2.33-.67.81-.13,1.65-.2,2.5-.2,1.28,0,2.45.19,3.51.58s1.98.92,2.75,1.59c.77.67,1.37,1.47,1.79,2.4.43.93.64,1.93.64,3.01v18.67h-3.93v-18.01c0-.88-.15-1.63-.46-2.25-.31-.62-.73-1.13-1.25-1.53s-1.13-.68-1.81-.86c-.68-.18-1.4-.27-2.14-.27-.92,0-1.85.18-2.78.54s-1.77.86-2.51,1.51c-.75.64-1.35,1.39-1.82,2.25-.47.86-.71,1.79-.71,2.78v15.83h-3.93v-35.46h3.93Z"/>
      <path class="cls-1" d="M679.44,143.8c0,2.43.34,4.59,1.02,6.48.68,1.89,1.61,3.48,2.78,4.78,1.17,1.3,2.53,2.29,4.07,2.97,1.54.68,3.17,1.02,4.89,1.02,1.01,0,2.01-.16,2.99-.49s1.92-.78,2.82-1.35c.89-.57,1.72-1.26,2.49-2.06s1.43-1.67,1.99-2.61,1.01-1.93,1.34-2.97c.33-1.04.51-2.11.54-3.19h-11.51v-3.31h15.26v18.44h-2.42l-1.17-6.27c-.62.91-1.39,1.79-2.3,2.64s-1.91,1.62-2.99,2.29c-1.08.68-2.21,1.21-3.4,1.62s-2.37.61-3.54.61c-2.59,0-4.92-.48-6.99-1.43-2.07-.95-3.84-2.26-5.29-3.92-1.45-1.66-2.57-3.62-3.35-5.89-.78-2.27-1.17-4.72-1.17-7.35,0-1.53.16-3.06.49-4.57.33-1.51.82-2.95,1.46-4.31.65-1.37,1.44-2.64,2.39-3.81.95-1.17,2.03-2.18,3.26-3.04s2.58-1.52,4.08-2.01,3.11-.73,4.85-.73c2.2,0,4.16.27,5.89.81,1.73.54,3.24,1.3,4.53,2.28,1.29.98,2.37,2.14,3.23,3.49.86,1.35,1.53,2.83,2.01,4.45h-4.17c-.96-2.63-2.37-4.58-4.24-5.84-1.87-1.27-4.28-1.9-7.24-1.9-1.84,0-3.54.4-5.08,1.21-1.54.81-2.87,1.91-3.99,3.29-1.11,1.38-1.98,2.99-2.6,4.83-.62,1.84-.93,3.78-.93,5.84Z"/>
      <path class="cls-1" d="M719.69,149.26c.02,1.18.23,2.34.65,3.48.42,1.14.98,2.15,1.7,3.04s1.56,1.6,2.54,2.15c.97.55,2.03.82,3.16.82,3.85,0,6.39-1.69,7.63-5.06h3.61c-.3,1.32-.81,2.49-1.53,3.52-.72,1.03-1.58,1.9-2.59,2.62-1.01.71-2.13,1.26-3.35,1.63-1.22.37-2.48.56-3.77.56-1.86,0-3.54-.38-5.04-1.14-1.5-.76-2.77-1.77-3.83-3.04-1.06-1.27-1.87-2.73-2.45-4.39-.58-1.66-.87-3.4-.87-5.22,0-1.7.28-3.34.85-4.91.57-1.57,1.38-2.95,2.43-4.15,1.05-1.2,2.33-2.15,3.83-2.86,1.5-.71,3.18-1.06,5.04-1.06s3.43.32,4.88.97c1.44.65,2.68,1.54,3.71,2.66,1.03,1.12,1.82,2.45,2.37,3.97.55,1.53.82,3.17.82,4.92v1.49h-19.8ZM735.43,146.38c-.04-1.08-.25-2.09-.63-3.04-.38-.94-.91-1.77-1.59-2.48-.68-.71-1.51-1.27-2.49-1.67-.97-.4-2.06-.61-3.27-.61-1.1,0-2.12.22-3.06.66-.94.44-1.76,1.02-2.45,1.75-.69.72-1.24,1.56-1.64,2.49-.4.94-.61,1.9-.62,2.9h15.74Z"/>
      <path class="cls-1" d="M745.58,135.76h3.93v3.79c1.37-1.5,2.85-2.59,4.44-3.28,1.59-.68,3.24-1.02,4.94-1.02,1.26,0,2.38.18,3.38.53s1.83.86,2.52,1.52c.69.66,1.22,1.45,1.58,2.39s.54,1.99.54,3.15v18.67h-3.93v-18.19c0-.88-.11-1.61-.33-2.21-.22-.6-.54-1.08-.96-1.45-.42-.37-.93-.64-1.53-.81-.6-.17-1.28-.25-2.02-.25-1.21,0-2.33.2-3.39.61-1.05.4-1.97.94-2.75,1.61-.78.66-1.39,1.43-1.83,2.3-.44.87-.66,1.76-.66,2.69v15.71h-3.93v-25.75Z"/>
      <path class="cls-1" d="M777.24,149.26c.02,1.18.23,2.34.65,3.48.42,1.14.98,2.15,1.7,3.04s1.56,1.6,2.54,2.15c.97.55,2.03.82,3.16.82,3.85,0,6.39-1.69,7.63-5.06h3.61c-.3,1.32-.81,2.49-1.53,3.52-.72,1.03-1.58,1.9-2.59,2.62-1.01.71-2.13,1.26-3.35,1.63-1.22.37-2.48.56-3.77.56-1.86,0-3.54-.38-5.04-1.14-1.5-.76-2.77-1.77-3.83-3.04-1.06-1.27-1.87-2.73-2.45-4.39-.58-1.66-.87-3.4-.87-5.22,0-1.7.28-3.34.85-4.91.57-1.57,1.38-2.95,2.43-4.15,1.05-1.2,2.33-2.15,3.83-2.86,1.5-.71,3.18-1.06,5.04-1.06s3.43.32,4.88.97c1.44.65,2.68,1.54,3.71,2.66,1.03,1.12,1.82,2.45,2.37,3.97.55,1.53.82,3.17.82,4.92v1.49h-19.8ZM792.97,146.38c-.04-1.08-.25-2.09-.63-3.04-.38-.94-.91-1.77-1.59-2.48-.68-.71-1.51-1.27-2.49-1.67-.97-.4-2.06-.61-3.27-.61-1.1,0-2.12.22-3.06.66-.94.44-1.76,1.02-2.45,1.75-.69.72-1.24,1.56-1.64,2.49-.4.94-.61,1.9-.62,2.9h15.74Z"/>
      <path class="cls-1" d="M825,161.71c-.25.09-.57.16-.97.22-.4.06-.73.09-1,.09-1.12,0-2.04-.4-2.78-1.19-.73-.79-1.15-2.02-1.23-3.69-.85,1.05-1.69,1.89-2.51,2.53-.82.64-1.65,1.13-2.47,1.48-.82.34-1.65.58-2.47.7-.82.12-1.66.18-2.51.18-1.1,0-2.13-.17-3.08-.51-.96-.34-1.79-.82-2.51-1.44-.72-.63-1.28-1.37-1.69-2.25s-.61-1.86-.61-2.94.25-2,.75-2.77c.49-.77,1.16-1.43,1.98-1.99.82-.56,1.75-1.02,2.79-1.4,1.04-.38,2.1-.72,3.19-1.01,1.09-.29,2.16-.58,3.2-.85,1.04-.27,1.98-.56,2.8-.89s1.48-.7,1.98-1.13c.49-.43.74-.97.74-1.61,0-.74-.15-1.4-.45-1.99-.3-.58-.73-1.07-1.28-1.47-.55-.39-1.21-.7-1.99-.9-.78-.2-1.64-.3-2.58-.3-.8,0-1.56.1-2.27.29-.72.2-1.36.48-1.92.85-.56.37-1.02.83-1.39,1.37-.37.54-.61,1.16-.72,1.87h-4.09c.07-1.25.42-2.35,1.04-3.31.62-.96,1.41-1.77,2.37-2.42.96-.65,2.04-1.14,3.26-1.48s2.46-.51,3.74-.51c1.38,0,2.69.16,3.92.48,1.23.32,2.32.81,3.26,1.47.94.66,1.68,1.49,2.23,2.49s.82,2.19.82,3.56v13.3c0,.66.17,1.18.52,1.58.34.4.77.59,1.29.59.11,0,.21,0,.32-.03.11-.02.22-.04.35-.08v3.09ZM818.6,147.21c-.55.56-1.26,1.01-2.14,1.37s-1.82.67-2.82.96c-1,.29-2.01.56-3.02.84-1.01.27-1.93.59-2.75.96s-1.49.82-2.01,1.35c-.51.53-.77,1.2-.77,2.01,0,.72.13,1.34.4,1.85s.61.92,1.04,1.25.91.57,1.46.72c.55.15,1.11.23,1.67.23,1.63,0,3.23-.47,4.8-1.42,1.57-.95,2.95-2.4,4.13-4.35v-5.77Z"/>
      <path class="cls-1" d="M834.44,126.04v35.46h-3.93v-35.46h3.93Z"/>
      <path class="cls-1" d="M840.63,148.71c0-1.82.26-3.54.78-5.17s1.29-3.05,2.31-4.28,2.28-2.2,3.78-2.92c1.5-.72,3.21-1.09,5.14-1.09s3.68.36,5.18,1.09c1.51.73,2.78,1.7,3.81,2.92,1.04,1.22,1.82,2.65,2.37,4.28.54,1.63.81,3.35.81,5.17s-.27,3.51-.81,5.12c-.54,1.61-1.33,3.02-2.37,4.24-1.04,1.21-2.31,2.18-3.81,2.88-1.51.71-3.23,1.06-5.18,1.06s-3.65-.35-5.14-1.06c-1.5-.71-2.76-1.67-3.78-2.88s-1.79-2.63-2.31-4.24c-.52-1.61-.78-3.32-.78-5.12ZM844.57,148.71c0,1.35.19,2.63.56,3.83.37,1.21.9,2.27,1.59,3.19.69.92,1.54,1.65,2.54,2.19,1,.54,2.13.81,3.39.81s2.4-.27,3.42-.81,1.89-1.27,2.61-2.19c.72-.92,1.27-1.98,1.65-3.19.38-1.2.57-2.48.57-3.83s-.19-2.63-.57-3.86c-.38-1.22-.93-2.3-1.65-3.23s-1.59-1.66-2.61-2.21c-1.02-.55-2.16-.82-3.42-.82s-2.39.27-3.39.82c-1,.55-1.85,1.28-2.54,2.21-.69.93-1.22,2-1.59,3.23s-.56,2.51-.56,3.86Z"/>
      <path class="cls-1" d="M892.17,162.14c0,1.74-.31,3.27-.93,4.59s-1.45,2.43-2.49,3.33-2.23,1.57-3.57,2.02-2.75.68-4.2.68c-2.5,0-4.69-.61-6.57-1.85s-3.3-3.19-4.28-5.87h3.99c.73,1.55,1.65,2.67,2.76,3.37,1.12.69,2.48,1.04,4.09,1.04.99,0,1.93-.18,2.8-.53s1.65-.85,2.31-1.48c.66-.63,1.19-1.38,1.57-2.25.38-.87.57-1.83.57-2.87v-4.91c-.44.83-.95,1.53-1.52,2.11s-1.17,1.06-1.81,1.43c-.64.37-1.3.64-1.99.81-.69.17-1.38.25-2.07.25-1.81,0-3.43-.36-4.88-1.09-1.44-.73-2.67-1.7-3.68-2.94-1.01-1.23-1.79-2.66-2.33-4.3-.54-1.63-.81-3.36-.81-5.18s.27-3.54.81-5.15c.54-1.61,1.3-3.01,2.28-4.21.99-1.2,2.17-2.14,3.56-2.85,1.39-.7,2.94-1.05,4.64-1.05.6,0,1.24.05,1.93.15.68.1,1.36.31,2.05.63.68.32,1.35.78,1.99,1.38.65.6,1.25,1.39,1.82,2.37v-4.02h3.93v26.38ZM888.24,148.2c-.04-1.32-.22-2.56-.55-3.72-.33-1.16-.8-2.18-1.42-3.05s-1.37-1.56-2.25-2.07c-.88-.51-1.87-.77-2.99-.77s-2.21.26-3.19.78-1.81,1.23-2.51,2.14c-.7.9-1.25,1.95-1.65,3.15-.4,1.2-.6,2.48-.6,3.85s.2,2.66.6,3.88c.4,1.22.95,2.3,1.65,3.24.7.94,1.54,1.68,2.51,2.23.97.55,2.04.82,3.19.82s2.15-.25,3.04-.76c.89-.51,1.65-1.2,2.27-2.09s1.09-1.92,1.41-3.11c.32-1.19.48-2.47.48-3.83v-.68Z"/>
      <path class="cls-1" d="M904.08,126.04v4.38h-3.93v-4.38h3.93ZM904.08,135.76v25.75h-3.93v-25.75h3.93Z"/>
      <path class="cls-1" d="M913.57,153.69c.02.91.18,1.69.51,2.33.32.64.75,1.16,1.3,1.57s1.19.7,1.93.89c.73.19,1.55.28,2.43.28.71,0,1.46-.06,2.25-.19.79-.13,1.51-.34,2.17-.65s1.2-.72,1.62-1.24c.42-.52.64-1.18.64-1.97,0-.73-.23-1.34-.69-1.85-.46-.51-1.06-.95-1.81-1.33-.74-.38-1.59-.73-2.55-1.05-.96-.32-1.93-.65-2.92-.97-.99-.33-1.97-.69-2.92-1.09-.96-.4-1.81-.87-2.55-1.43-.75-.56-1.35-1.21-1.81-1.97-.46-.76-.69-1.67-.69-2.73,0-1.13.26-2.13.77-3s1.2-1.6,2.06-2.2c.86-.6,1.85-1.05,2.96-1.37,1.12-.31,2.28-.47,3.48-.47,1.37,0,2.63.16,3.8.47,1.17.31,2.19.78,3.07,1.39.88.62,1.58,1.38,2.1,2.3.52.92.81,1.98.87,3.17h-4.04c-.09-.67-.3-1.27-.63-1.77-.33-.51-.75-.92-1.28-1.25s-1.11-.57-1.78-.73c-.66-.16-1.37-.24-2.11-.24-.87,0-1.63.1-2.3.3-.66.2-1.22.48-1.68.82-.45.35-.79.75-1.02,1.2-.23.46-.35.93-.35,1.42,0,.66.23,1.23.69,1.71s1.06.92,1.81,1.3c.74.39,1.59.75,2.55,1.08.96.33,1.93.67,2.92,1.01.99.34,1.97.72,2.92,1.13.96.4,1.81.87,2.55,1.4.75.53,1.35,1.15,1.81,1.86s.69,1.54.69,2.51c0,1.38-.29,2.56-.87,3.53-.58.97-1.35,1.76-2.32,2.38-.98.61-2.11,1.07-3.39,1.35-1.28.29-2.63.43-4.03.43s-2.66-.17-3.88-.52c-1.22-.34-2.3-.86-3.21-1.56-.92-.69-1.66-1.56-2.22-2.59s-.86-2.25-.92-3.66h4.07Z"/>
      <path class="cls-1" d="M941.59,128.62v7.13h4.78v3.19h-4.78v16.87c0,.56.08,1.02.23,1.4s.35.68.61.91c.26.23.56.39.92.48s.73.14,1.14.14c.51,0,1.03-.05,1.56-.14s.98-.18,1.37-.27v3.04c-.46.13-1.06.27-1.79.42-.74.14-1.49.22-2.27.22-.67,0-1.35-.09-2.03-.27-.68-.18-1.29-.46-1.83-.85s-.98-.89-1.32-1.51c-.34-.62-.51-1.37-.51-2.26v-18.19h-4.15v-3.19h4.15v-7.13h3.93Z"/>
    </g>
  </g>
  <g>
    <g>
      <path class="cls-1" d="M73.28,188.81c-.9-.9-1.73-1.84-2.49-2.81-1.29-1.64-2.4-3.39-3.31-5.2-2-3.96-3.11-8.26-3.34-12.6-.03-.5-.05-1.01-.05-1.52,0-1.23.06-2.46.2-3.68.05-.51.12-1.01.21-1.52.72-4.44,2.37-8.75,4.99-12.6,1.09-1.62,2.36-3.16,3.79-4.6l.61-.61,12.73-12.8h0l9.11-9.15-.04-.04,13.07-13.13c2.38-2.39,3.98-5.25,4.82-8.29.14-.5.26-1.01.36-1.52.23-1.21.34-2.45.33-3.68,0-.51-.03-1.02-.07-1.52-.37-4.27-2.18-8.44-5.44-11.71-.31-.31-.63-.61-.95-.89-7.07-6.19-17.65-6.19-24.71,0-.32.28-.64.58-.95.89-3.26,3.27-5.06,7.44-5.44,11.71-.05.5-.07,1.01-.07,1.52-.01,1.24.1,2.47.33,3.68.1.51.22,1.02.36,1.52.84,3.03,2.44,5.9,4.82,8.29l4.47,4.49-8.87,8.91-3.87-3.89-.61-.61c-1.43-1.44-2.69-2.98-3.78-4.6-2.61-3.85-4.28-8.16-4.99-12.6-.08-.51-.15-1.01-.21-1.52-.14-1.22-.21-2.45-.2-3.68,0-.51.02-1.02.05-1.52.22-4.34,1.34-8.64,3.34-12.6.92-1.82,2.02-3.56,3.31-5.2.76-.97,1.59-1.91,2.48-2.81,12.25-12.3,32.1-12.3,44.35,0,.9.9,1.73,1.84,2.49,2.81,1.29,1.64,2.4,3.39,3.31,5.2,2,3.96,3.11,8.26,3.34,12.6.03.5.05,1.01.05,1.52,0,1.23-.06,2.46-.2,3.68-.05.51-.12,1.01-.21,1.52-.72,4.44-2.37,8.75-4.99,12.6-1.09,1.62-2.36,3.16-3.79,4.6l-.61.61-12.73,12.8h0l-9.11,9.15.04.04-13.07,13.13c-2.38,2.39-3.98,5.25-4.82,8.29-.14.51-.26,1.01-.36,1.52-.23,1.21-.34,2.45-.33,3.68,0,.51.03,1.02.07,1.52.37,4.27,2.18,8.44,5.44,11.71.31.31.63.61.95.89,7.07,6.19,17.65,6.19,24.71,0,.32-.28.64-.58.95-.89,3.26-3.27,5.06-7.44,5.44-11.71.05-.5.07-1.01.07-1.52.01-1.24-.1-2.47-.33-3.68-.1-.51-.22-1.02-.36-1.52-.84-3.03-2.44-5.9-4.82-8.29l-4.47-4.49,8.87-8.91,3.87,3.89.61.61c1.43,1.44,2.69,2.98,3.78,4.6,2.61,3.85,4.28,8.16,4.99,12.6.08.51.15,1.01.21,1.52.14,1.22.21,2.45.2,3.68,0,.51-.02,1.02-.05,1.52-.22,4.34-1.34,8.64-3.34,12.6-.92,1.82-2.02,3.56-3.31,5.2-.76.97-1.59,1.91-2.48,2.81-12.25,12.3-32.1,12.3-44.35,0h0Z"/>
      <path class="cls-1" d="M81.92,168.2h27.06c-.36,3.03-1.71,5.83-3.89,8.03-5.31,5.34-13.96,5.34-19.28,0-2.18-2.19-3.53-5-3.89-8.03h0Z"/>
      <path class="cls-1" d="M95.45,112.86h0c-1.08,0-2.11-.43-2.87-1.2l-6.76-6.8c-1.33-1.34-2.35-2.9-3.03-4.61h25.33c-.67,1.71-1.7,3.27-3.03,4.61l-6.76,6.8c-.76.76-1.79,1.2-2.87,1.2h0Z"/>
    </g>
    <g>
      <g>
        <ellipse class="cls-1" cx="39.07" cy="44.74" rx="20.08" ry="23.57" transform="translate(-20.13 39.89) rotate(-44.19)"/>
        <ellipse class="cls-1" cx="26.14" cy="94.67" rx="26.14" ry="22.38"/>
        <ellipse class="cls-1" cx="39.06" cy="137.91" rx="16.4" ry="13.97" transform="translate(-87.05 69.79) rotate(-45.81)"/>
      </g>
      <g>
        <ellipse class="cls-1" cx="151.84" cy="44.75" rx="23.57" ry="20.08" transform="translate(13.92 122.43) rotate(-45.81)"/>
        <path class="cls-1" d="M164.77,117.04c-14.44,0-26.14-10.02-26.14-22.38s11.7-22.38,26.14-22.38,26.14,10.02,26.14,22.38-11.7,22.38-26.14,22.38Z"/>
        <ellipse class="cls-1" cx="151.84" cy="137.9" rx="13.97" ry="16.4" transform="translate(-53.16 144.86) rotate(-44.19)"/>
      </g>
    </g>
    <ellipse class="cls-1" cx="95.45" cy="24.76" rx="21.01" ry="24.76"/>
  </g>
</svg>