<?xml version="1.0" encoding="UTF-8"?>
<svg id="Layer_1" data-name="Layer 1" xmlns="http://www.w3.org/2000/svg" viewBox="0 0 502.32 98.21">
  <defs>
    <style>
      .cls-1 {
        fill: #2d2a25;
      }
    </style>
  </defs>
  <g>
    <g>
      <g>
        <path class="cls-1" d="M35.16,94.48c-.36-.36-.7-.74-1.01-1.14-.53-.67-.97-1.37-1.35-2.11-.81-1.6-1.27-3.35-1.36-5.1-.01-.2-.02-.41-.02-.62,0-.5.03-1,.08-1.49.02-.21.05-.41.08-.62.29-1.8.97-3.54,2.03-5.1.44-.66.96-1.28,1.54-1.86l.25-.25,5.18-5.18h0l3.7-3.71h-.01s5.32-5.33,5.32-5.33c.97-.97,1.62-2.13,1.96-3.36.06-.2.11-.41.15-.62.09-.49.14-.99.13-1.49,0-.21-.01-.41-.03-.62-.15-1.73-.89-3.42-2.21-4.74-.13-.13-.26-.25-.39-.36-2.88-2.51-7.18-2.51-10.05,0-.13.11-.26.23-.39.36-1.32,1.32-2.06,3.01-2.21,4.74-.02.2-.03.41-.03.62,0,.5.04,1,.13,1.49.04.21.09.41.15.62.34,1.23.99,2.39,1.96,3.36l1.82,1.82-3.61,3.61-1.57-1.58-.25-.25c-.58-.58-1.09-1.21-1.54-1.86-1.06-1.56-1.74-3.31-2.03-5.1-.03-.21-.06-.41-.08-.62-.06-.5-.08-.99-.08-1.49,0-.21,0-.41.02-.62.09-1.76.54-3.5,1.36-5.1.37-.74.82-1.44,1.35-2.11.31-.39.65-.77,1.01-1.14,4.98-4.98,13.06-4.98,18.04,0,.36.36.7.74,1.01,1.14.53.67.97,1.37,1.35,2.11.81,1.6,1.27,3.35,1.36,5.1.01.2.02.41.02.62,0,.5-.03,1-.08,1.49-.02.21-.05.41-.08.62-.29,1.8-.97,3.54-2.03,5.1-.44.66-.96,1.28-1.54,1.86l-.25.25-5.18,5.18h0l-3.7,3.71h.01s-5.32,5.33-5.32,5.33c-.97.97-1.62,2.13-1.96,3.36-.06.2-.11.41-.15.62-.09.49-.14.99-.13,1.49,0,.21.01.41.03.62.15,1.73.89,3.42,2.21,4.74.13.13.26.25.39.36,2.88,2.51,7.18,2.51,10.05,0,.13-.11.26-.23.39-.36,1.32-1.32,2.06-3.01,2.21-4.74.02-.2.03-.41.03-.62,0-.5-.04-1-.13-1.49-.04-.21-.09-.41-.15-.62-.34-1.23-.99-2.39-1.96-3.36l-1.82-1.82,3.61-3.61,1.57,1.58.25.25c.58.58,1.09,1.21,1.54,1.86,1.06,1.56,1.74,3.31,2.03,5.1.03.21.06.41.08.62.06.5.08.99.08,1.49,0,.21,0,.41-.02.62-.09,1.76-.54,3.5-1.36,5.1-.37.74-.82,1.44-1.35,2.11-.31.39-.65.77-1.01,1.14-4.98,4.98-13.06,4.98-18.04,0Z"/>
        <path class="cls-1" d="M38.68,86.13h11.01c-.15,1.23-.7,2.36-1.58,3.25-2.16,2.16-5.68,2.16-7.84,0-.89-.89-1.44-2.02-1.58-3.25Z"/>
        <path class="cls-1" d="M44.18,63.71h0c-.44,0-.86-.17-1.17-.48l-2.75-2.75c-.54-.54-.96-1.17-1.23-1.87h10.3c-.27.69-.69,1.32-1.23,1.87l-2.75,2.75c-.31.31-.73.48-1.17.48Z"/>
      </g>
      <path class="cls-1" d="M44.83,0c-.61.38-6.11,3.95-6.69,10.88-.53,6.34,3.47,10.55,4.07,11.16.49-1.7.95-3.66,1.27-5.85.28-1.92.41-3.69.45-5.28.38,1.23.74,2.86.81,4.8.11,2.81-.44,5.1-.93,6.6.31-.2,6.68-4.38,6.46-11.91-.18-6.29-4.82-9.93-5.45-10.4Z"/>
    </g>
    <g>
      <g>
        <path class="cls-1" d="M20.37,17.13c-.21.91-1.98,9.22,3.84,16.1,5.33,6.3,12.85,6.49,13.96,6.49-1.1-2-2.48-4.22-4.2-6.53-1.5-2.02-3.01-3.76-4.43-5.25,1.47.78,3.3,1.94,5.15,3.65,2.67,2.47,4.27,5.07,5.2,6.89.11-.47,2.1-10.13-4.99-16.83-5.93-5.59-13.52-4.68-14.52-4.54Z"/>
        <path class="cls-1" d="M3.65,34.38c.14.92,1.52,9.31,9.45,13.59,7.26,3.92,14.33,1.35,15.36.95-1.76-1.46-3.85-3.02-6.29-4.54-2.13-1.33-4.17-2.4-6.03-3.27,1.65.19,3.78.61,6.12,1.52,3.39,1.33,5.83,3.16,7.36,4.52-.07-.48-1.74-10.2-10.79-13.84-7.56-3.04-14.3.57-15.18,1.07Z"/>
        <path class="cls-1" d="M17.53,75.27c.54.09,5.45.83,9.26-2.82,3.48-3.33,3.32-7.73,3.29-8.38-1.13.72-2.37,1.6-3.66,2.69-1.12.95-2.09,1.89-2.9,2.77.4-.89,1.02-2,1.95-3.13,1.35-1.65,2.81-2.67,3.84-3.28-.28-.04-5.99-.86-9.64,3.52-3.05,3.66-2.25,8.06-2.13,8.64Z"/>
        <path class="cls-1" d="M0,55.93c.38.61,3.95,6.11,10.88,6.69,6.34.53,10.55-3.47,11.16-4.07-1.7-.49-3.66-.95-5.85-1.27-1.92-.28-3.69-.41-5.28-.45,1.23-.38,2.86-.74,4.8-.81,2.81-.11,5.1.44,6.6.93-.2-.31-4.38-6.68-11.91-6.46-6.29.18-9.93,4.82-10.4,5.45Z"/>
      </g>
      <g>
        <path class="cls-1" d="M68,17.13c.21.91,1.98,9.22-3.84,16.1-5.33,6.3-12.85,6.49-13.96,6.49,1.1-2,2.48-4.22,4.2-6.53,1.5-2.02,3.01-3.76,4.43-5.25-1.47.78-3.3,1.94-5.15,3.65-2.67,2.47-4.27,5.07-5.2,6.89-.11-.47-2.1-10.13,4.99-16.83,5.93-5.59,13.52-4.68,14.52-4.54Z"/>
        <path class="cls-1" d="M84.72,34.38c-.14.92-1.52,9.31-9.45,13.59-7.26,3.92-14.33,1.35-15.36.95,1.76-1.46,3.85-3.02,6.29-4.54,2.13-1.33,4.17-2.4,6.03-3.27-1.65.19-3.78.61-6.12,1.52-3.39,1.33-5.83,3.16-7.36,4.52.07-.48,1.74-10.2,10.79-13.84,7.56-3.04,14.3.57,15.18,1.07Z"/>
        <path class="cls-1" d="M70.84,75.27c-.54.09-5.45.83-9.26-2.82-3.48-3.33-3.32-7.73-3.29-8.38,1.13.72,2.37,1.6,3.66,2.69,1.12.95,2.09,1.89,2.9,2.77-.4-.89-1.02-2-1.95-3.13-1.35-1.65-2.81-2.67-3.84-3.28.28-.04,5.99-.86,9.64,3.52,3.05,3.66,2.25,8.06,2.13,8.64Z"/>
        <path class="cls-1" d="M88.37,55.93c-.38.61-3.95,6.11-10.88,6.69-6.34.53-10.55-3.47-11.16-4.07,1.7-.49,3.66-.95,5.85-1.27,1.92-.28,3.69-.41,5.28-.45-1.23-.38-2.86-.74-4.8-.81-2.81-.11-5.1.44-6.6.93.2-.31,4.38-6.68,11.91-6.46,6.29.18,9.93,4.82,10.4,5.45Z"/>
      </g>
    </g>
  </g>
  <g>
    <g>
      <path class="cls-1" d="M165.04,21.28l-7.22,24.88h-5.65l-8.84-34.84h6.14l5.77,23.13,7.09-23.13h5.37l7.04,22.9,5.89-22.9h6.09l-8.89,34.84h-5.59l-7.22-24.88Z"/>
      <path class="cls-1" d="M196.63,11.34v5.87h-5.89v-5.87h5.89ZM196.63,20.73v25.43h-5.89v-25.43h5.89Z"/>
      <path class="cls-1" d="M221.61,20.73v4.55l-13.41,15.94h13.41v4.95h-21.23v-4.15l13.21-16.11h-13.21v-5.17h21.23Z"/>
      <path class="cls-1" d="M226.1,20.73h5.89v2.72c1-1.15,2.04-1.97,3.11-2.47,1.07-.5,2.11-.75,3.11-.75.6,0,1.17.06,1.72.17s1.09.34,1.61.66c.52.32,1.04.78,1.54,1.37.5.59,1.01,1.36,1.52,2.31.6-.87,1.22-1.59,1.86-2.17.64-.58,1.29-1.05,1.95-1.4.66-.35,1.32-.6,1.97-.74.66-.14,1.3-.21,1.94-.21,1.28,0,2.44.23,3.48.69,1.04.46,1.93,1.09,2.67,1.89s1.31,1.74,1.71,2.82c.4,1.08.6,2.25.6,3.5v17.03h-5.87v-16.78c0-.82-.1-1.49-.31-2.02-.21-.53-.48-.96-.81-1.27-.33-.32-.7-.54-1.11-.67s-.82-.2-1.24-.2c-.6,0-1.19.14-1.77.42-.58.28-1.11.67-1.59,1.17s-.86,1.09-1.15,1.76c-.29.67-.44,1.4-.44,2.19v15.41h-5.89v-16.78c0-.82-.1-1.49-.31-2.02-.21-.53-.47-.96-.79-1.27-.32-.32-.66-.54-1.04-.67-.37-.13-.74-.2-1.09-.2-.75,0-1.45.18-2.11.55s-1.23.83-1.71,1.4-.87,1.19-1.15,1.87c-.28.68-.42,1.33-.42,1.95v15.19h-5.89v-25.43Z"/>
      <path class="cls-1" d="M290.09,45.48c-.48.3-.91.53-1.27.69-.37.16-.7.27-.99.35-.29.07-.54.12-.75.12-.21,0-.39.01-.54.01-.6,0-1.15-.1-1.63-.31-.49-.21-.92-.5-1.3-.86s-.7-.79-.97-1.26-.5-.98-.69-1.51c-.75.78-1.46,1.43-2.12,1.94s-1.32.91-1.97,1.21c-.65.3-1.3.51-1.95.63-.65.12-1.32.17-2.02.17-1.13,0-2.19-.18-3.18-.54-.99-.36-1.85-.87-2.58-1.52-.73-.66-1.31-1.45-1.74-2.39s-.64-1.96-.64-3.1c0-.98.22-1.83.66-2.55.44-.72,1.02-1.34,1.75-1.87s1.55-.99,2.47-1.37c.92-.38,1.86-.73,2.82-1.04.96-.31,1.9-.6,2.82-.89.92-.28,1.75-.58,2.47-.9s1.31-.67,1.75-1.06c.44-.39.66-.86.66-1.41s-.14-.98-.41-1.34c-.27-.36-.62-.65-1.05-.87s-.9-.39-1.42-.49c-.53-.1-1.04-.15-1.54-.15s-1,.07-1.5.21c-.5.14-.95.36-1.36.66-.41.3-.75.69-1.04,1.16-.28.47-.47,1.04-.55,1.69h-5.97c.1-1.46.46-2.74,1.09-3.83.62-1.09,1.42-1.99,2.39-2.71.97-.72,2.05-1.25,3.26-1.6,1.21-.35,2.44-.52,3.68-.52,1.37,0,2.67.15,3.91.45,1.24.3,2.33.77,3.28,1.42.95.65,1.71,1.48,2.27,2.49s.85,2.22.85,3.63v12.34c0,.33.11.64.33.91.21.27.53.41.95.41.03,0,.21-.02.53-.06.31-.04.73-.2,1.25-.49v4.15ZM281.15,33.97c-.38.23-.88.44-1.5.62s-1.28.37-2,.56c-.72.19-1.44.4-2.16.61-.72.22-1.38.47-1.96.76-.58.29-1.06.63-1.44,1.02-.37.39-.56.85-.56,1.39s.08.96.25,1.32c.17.37.39.67.66.9s.59.4.94.51c.35.11.7.16,1.05.16,1.15,0,2.32-.39,3.51-1.16s2.26-1.94,3.21-3.51v-3.2Z"/>
      <path class="cls-1" d="M293.12,20.73h5.89v3c1.1-1.25,2.25-2.14,3.46-2.69,1.21-.54,2.45-.81,3.73-.81s2.46.19,3.48.57c1.02.38,1.89.93,2.6,1.64.71.71,1.25,1.56,1.64,2.55.38.99.58,2.09.58,3.31v17.86h-5.9v-16.91c0-.65-.09-1.22-.27-1.72s-.43-.92-.75-1.27c-.32-.35-.69-.61-1.12-.79-.43-.17-.89-.26-1.37-.26-.78,0-1.54.16-2.27.49-.73.32-1.38.76-1.94,1.3-.56.54-1.01,1.17-1.35,1.87-.34.71-.51,1.44-.51,2.21v15.09h-5.89v-25.43Z"/>
      <path class="cls-1" d="M327.86,11.31v14.36h15.76v-14.36h5.9v34.84h-5.9v-15.59h-15.76v15.59h-5.89V11.31h5.89Z"/>
      <path class="cls-1" d="M361.43,35.02c.08.92.29,1.79.62,2.61.33.82.76,1.55,1.27,2.17.52.62,1.11,1.12,1.8,1.49.68.37,1.41.55,2.2.55,1.45,0,2.65-.4,3.61-1.19s1.72-1.98,2.28-3.56h5.45c-.33,1.52-.87,2.86-1.61,4.05-.74,1.18-1.62,2.18-2.64,3-1.02.82-2.14,1.44-3.36,1.87s-2.48.65-3.78.65c-1.83,0-3.48-.37-4.95-1.1s-2.71-1.72-3.75-2.95c-1.03-1.23-1.83-2.67-2.39-4.31s-.84-3.37-.84-5.18c0-1.7.28-3.33.84-4.88.56-1.56,1.35-2.93,2.39-4.12,1.03-1.19,2.28-2.14,3.76-2.84,1.47-.7,3.13-1.05,4.96-1.05s3.36.32,4.79.96c1.43.64,2.66,1.52,3.67,2.64,1.02,1.12,1.79,2.44,2.34,3.96s.81,3.17.81,4.93v2.3h-17.48ZM372.91,30.55c-.08-.8-.28-1.52-.6-2.17s-.72-1.21-1.22-1.69-1.09-.84-1.77-1.1-1.43-.39-2.25-.39c-.75,0-1.45.14-2.09.42-.64.28-1.21.67-1.7,1.15-.49.48-.9,1.05-1.22,1.7-.32.65-.54,1.34-.64,2.07h11.49Z"/>
      <path class="cls-1" d="M383.16,20.73h4.35l.97,3.12c.77-1.2,1.56-2.1,2.38-2.71.82-.61,1.73-.91,2.71-.91.3,0,.78.06,1.45.19.67.13,1.46.45,2.4.96v5.1c-.62-.23-1.15-.42-1.59-.55s-.81-.23-1.1-.29c-.29-.06-.52-.09-.67-.1-.16,0-.27-.01-.34-.01-.73,0-1.39.15-1.97.46-.58.31-1.07.72-1.47,1.22-.4.51-.71,1.09-.92,1.76-.22.67-.32,1.36-.32,2.07v15.11h-5.87v-25.43Z"/>
      <path class="cls-1" d="M405.51,11.34v5.87h-5.89v-5.87h5.89ZM405.51,20.73v25.43h-5.89v-25.43h5.89Z"/>
      <path class="cls-1" d="M418.45,13.74v6.99h4.67v4.82h-4.67v13.84c0,.7.16,1.28.49,1.75.32.47.78.7,1.36.7.18,0,.55-.03,1.1-.09.55-.06,1.31-.28,2.27-.66v4.65c-1.03.4-2.01.65-2.92.76-.92.11-1.68.16-2.3.16-.78,0-1.53-.16-2.25-.48-.72-.32-1.34-.76-1.89-1.34-.54-.58-.97-1.27-1.29-2.09s-.47-1.72-.47-2.72v-14.49h-3.65v-4.82h3.65v-6.99h5.89Z"/>
      <path class="cls-1" d="M449.97,45.48c-.48.3-.91.53-1.27.69-.37.16-.69.27-.99.35-.29.07-.54.12-.75.12-.21,0-.39.01-.54.01-.6,0-1.14-.1-1.63-.31-.49-.21-.92-.5-1.3-.86s-.7-.79-.97-1.26-.5-.98-.69-1.51c-.75.78-1.46,1.43-2.12,1.94-.67.51-1.32.91-1.97,1.21-.65.3-1.3.51-1.95.63-.65.12-1.32.17-2.02.17-1.13,0-2.19-.18-3.18-.54s-1.85-.87-2.58-1.52c-.73-.66-1.31-1.45-1.73-2.39-.43-.93-.64-1.96-.64-3.1,0-.98.22-1.83.66-2.55.44-.72,1.02-1.34,1.75-1.87.73-.53,1.55-.99,2.47-1.37.92-.38,1.86-.73,2.82-1.04.96-.31,1.9-.6,2.82-.89.92-.28,1.75-.58,2.47-.9s1.31-.67,1.75-1.06c.44-.39.66-.86.66-1.41s-.14-.98-.41-1.34c-.27-.36-.62-.65-1.05-.87-.42-.22-.9-.39-1.42-.49-.53-.1-1.04-.15-1.54-.15s-1,.07-1.5.21c-.5.14-.95.36-1.36.66-.41.3-.75.69-1.04,1.16s-.47,1.04-.55,1.69h-5.97c.1-1.46.46-2.74,1.09-3.83s1.42-1.99,2.38-2.71c.97-.72,2.05-1.25,3.26-1.6,1.21-.35,2.43-.52,3.68-.52,1.36,0,2.67.15,3.91.45,1.24.3,2.33.77,3.28,1.42s1.71,1.48,2.27,2.49c.57,1.01.85,2.22.85,3.63v12.34c0,.33.11.64.32.91s.53.41.95.41c.03,0,.21-.02.53-.06s.73-.2,1.25-.49v4.15ZM441.02,33.97c-.38.23-.88.44-1.5.62-.62.18-1.28.37-2,.56-.72.19-1.44.4-2.16.61-.72.22-1.38.47-1.96.76s-1.06.63-1.44,1.02c-.38.39-.56.85-.56,1.39s.08.96.25,1.32c.17.37.39.67.66.9s.59.4.94.51c.35.11.7.16,1.05.16,1.15,0,2.32-.39,3.51-1.16s2.26-1.94,3.21-3.51v-3.2Z"/>
      <path class="cls-1" d="M474.47,45.83c0,1.78-.31,3.35-.94,4.7-.62,1.35-1.45,2.47-2.48,3.37-1.03.9-2.22,1.58-3.56,2.04-1.34.46-2.73.69-4.16.69-1.25,0-2.43-.18-3.54-.53-1.11-.35-2.13-.89-3.07-1.61s-1.79-1.65-2.53-2.77c-.75-1.12-1.39-2.47-1.92-4.03h5.77c.65,1.45,1.41,2.49,2.27,3.13s1.87.96,3.02.96c.72,0,1.39-.14,2.04-.43.64-.28,1.2-.68,1.67-1.19s.85-1.11,1.12-1.82c.27-.71.41-1.48.41-2.31v-2.22c-.82.9-1.77,1.6-2.87,2.1-1.1.5-2.19.75-3.27.75-1.7,0-3.21-.35-4.55-1.04-1.33-.69-2.46-1.64-3.38-2.84-.92-1.2-1.63-2.6-2.11-4.21-.48-1.61-.72-3.32-.72-5.13s.25-3.53.76-5.13c.51-1.61,1.23-3.01,2.17-4.21.94-1.2,2.08-2.14,3.42-2.83,1.34-.69,2.84-1.04,4.51-1.04.45,0,.92.03,1.41.09s.99.19,1.51.39c.52.2,1.04.49,1.56.86.52.37,1.04.88,1.56,1.51v-2.35h5.89v25.1ZM468.57,33.17c-.02-1.1-.15-2.13-.39-3.1-.24-.97-.58-1.81-1.02-2.53s-.98-1.29-1.62-1.71c-.64-.42-1.37-.62-2.19-.62s-1.63.22-2.35.65c-.72.43-1.34,1.02-1.87,1.76s-.95,1.61-1.25,2.61c-.3,1-.45,2.07-.45,3.22s.15,2.23.45,3.25c.3,1.02.72,1.91,1.25,2.67.53.77,1.16,1.37,1.87,1.81.72.44,1.5.66,2.35.66s1.57-.22,2.22-.65,1.2-1.03,1.64-1.79c.44-.76.78-1.64,1.01-2.65.23-1.01.35-2.09.35-3.23v-.35Z"/>
      <path class="cls-1" d="M484.83,35.02c.08.92.29,1.79.62,2.61.33.82.76,1.55,1.27,2.17.52.62,1.11,1.12,1.8,1.49.68.37,1.41.55,2.2.55,1.45,0,2.65-.4,3.61-1.19s1.72-1.98,2.28-3.56h5.45c-.33,1.52-.87,2.86-1.61,4.05-.74,1.18-1.62,2.18-2.64,3-1.02.82-2.14,1.44-3.36,1.87s-2.48.65-3.78.65c-1.83,0-3.48-.37-4.95-1.1s-2.71-1.72-3.75-2.95c-1.03-1.23-1.83-2.67-2.39-4.31s-.84-3.37-.84-5.18c0-1.7.28-3.33.84-4.88.56-1.56,1.35-2.93,2.39-4.12,1.03-1.19,2.28-2.14,3.76-2.84,1.47-.7,3.13-1.05,4.96-1.05s3.36.32,4.79.96c1.43.64,2.66,1.52,3.67,2.64,1.02,1.12,1.79,2.44,2.34,3.96s.81,3.17.81,4.93v2.3h-17.48ZM496.32,30.55c-.08-.8-.28-1.52-.6-2.17s-.72-1.21-1.22-1.69-1.09-.84-1.77-1.1-1.43-.39-2.25-.39c-.75,0-1.45.14-2.09.42-.64.28-1.21.67-1.7,1.15-.49.48-.9,1.05-1.22,1.7-.32.65-.54,1.34-.64,2.07h11.49Z"/>
    </g>
    <g>
      <path class="cls-1" d="M146.07,63.05h7.19c.93,0,1.74.15,2.45.46.71.31,1.3.7,1.78,1.19.48.49.85,1.04,1.1,1.65s.38,1.23.38,1.84c0,.66-.13,1.3-.38,1.92-.25.62-.62,1.18-1.1,1.66s-1.08.87-1.79,1.17-1.52.44-2.44.44h-5.18v7.75h-2.02v-18.08ZM148.09,71.68h5.18c.49,0,.96-.09,1.4-.27s.84-.43,1.18-.75c.34-.32.61-.69.81-1.11.2-.42.3-.88.3-1.37s-.09-.93-.28-1.34c-.19-.41-.45-.77-.78-1.07-.33-.3-.72-.54-1.17-.71-.45-.17-.94-.25-1.46-.25h-5.18v6.88Z"/>
      <path class="cls-1" d="M162.65,67.93h2.02l-.08,2.19c.43-.72.93-1.26,1.51-1.64.58-.38,1.25-.56,2.02-.56.06,0,.15,0,.27,0s.23.01.35.03c.12.01.24.03.35.05s.2.04.27.07v1.96c-.21-.07-.45-.12-.71-.16s-.46-.06-.59-.06c-.54,0-1.01.1-1.43.28-.42.19-.77.45-1.06.77-.29.32-.51.7-.67,1.11-.15.42-.23.86-.23,1.32v7.83h-2.02v-13.2Z"/>
      <path class="cls-1" d="M170.77,74.57c0-.93.13-1.82.4-2.65.27-.83.66-1.56,1.19-2.19.52-.63,1.17-1.13,1.93-1.5.77-.37,1.65-.56,2.64-.56s1.89.19,2.66.56c.77.37,1.42.87,1.95,1.5.53.63.94,1.36,1.21,2.19s.42,1.72.42,2.65-.14,1.8-.42,2.63c-.28.83-.68,1.55-1.21,2.17-.53.62-1.18,1.11-1.95,1.48-.77.36-1.66.54-2.66.54s-1.87-.18-2.64-.54c-.77-.36-1.41-.86-1.93-1.48-.52-.62-.92-1.35-1.19-2.17-.27-.82-.4-1.7-.4-2.63ZM172.79,74.57c0,.69.1,1.35.29,1.96.19.62.46,1.16.82,1.63.35.47.79.85,1.3,1.12s1.09.42,1.74.42,1.23-.14,1.75-.42c.52-.28.97-.65,1.33-1.12.37-.47.65-1.01.84-1.63.2-.62.29-1.27.29-1.96s-.1-1.35-.29-1.98-.48-1.18-.84-1.65-.81-.85-1.33-1.13c-.52-.28-1.11-.42-1.75-.42s-1.22.14-1.74.42c-.51.28-.95.66-1.3,1.13s-.63,1.03-.82,1.65c-.19.63-.29,1.29-.29,1.98Z"/>
      <path class="cls-1" d="M186.31,62.96h2.02v6.84c.24-.31.51-.6.81-.86.3-.26.63-.49.97-.67s.69-.33,1.04-.44c.35-.1.69-.15,1.02-.15.94,0,1.75.19,2.45.56.7.38,1.28.88,1.76,1.52s.83,1.38,1.06,2.23c.24.85.35,1.74.35,2.67s-.12,1.81-.36,2.63c-.24.82-.6,1.53-1.08,2.14-.48.6-1.07,1.08-1.78,1.43-.71.35-1.53.53-2.47.53-.72,0-1.41-.19-2.09-.56-.68-.38-1.24-.93-1.7-1.67v1.97h-2.02v-18.17ZM188.33,74.66c0,.7.08,1.36.24,1.97.16.61.4,1.14.72,1.59.32.45.71.81,1.17,1.07s.98.39,1.57.39,1.13-.13,1.59-.39.86-.62,1.18-1.07c.32-.45.57-.99.73-1.59.16-.61.25-1.26.25-1.97s-.08-1.37-.25-2c-.16-.64-.41-1.2-.73-1.68-.32-.49-.72-.88-1.18-1.16s-.99-.43-1.59-.43-1.1.14-1.56.41c-.46.27-.85.64-1.17,1.09-.32.45-.56.97-.73,1.56-.17.58-.25,1.18-.25,1.8v.43Z"/>
      <path class="cls-1" d="M212.14,81.23c-.13.04-.29.08-.5.11-.2.03-.38.05-.51.05-.57,0-1.05-.2-1.42-.61-.38-.41-.59-1.04-.63-1.89-.44.54-.87.97-1.29,1.3-.42.33-.84.58-1.27.76-.42.18-.84.29-1.27.36-.42.06-.85.09-1.29.09-.56,0-1.09-.09-1.58-.26-.49-.17-.92-.42-1.29-.74-.37-.32-.66-.7-.86-1.15-.21-.45-.31-.95-.31-1.5s.13-1.03.38-1.42c.25-.39.59-.73,1.01-1.02.42-.28.9-.53,1.43-.72.53-.19,1.08-.37,1.63-.52.56-.15,1.11-.29,1.64-.43s1.01-.29,1.44-.45c.42-.16.76-.36,1.02-.58.25-.22.38-.5.38-.82,0-.38-.08-.72-.23-1.02-.15-.3-.37-.55-.65-.75-.28-.2-.62-.36-1.02-.46-.4-.1-.84-.16-1.32-.16-.41,0-.8.05-1.17.15-.37.1-.69.24-.98.44s-.52.42-.72.7c-.19.28-.31.6-.37.96h-2.1c.04-.64.21-1.21.53-1.7.32-.49.72-.91,1.21-1.24.49-.33,1.05-.59,1.67-.76.62-.17,1.26-.26,1.91-.26.71,0,1.38.08,2.01.25.63.16,1.19.42,1.67.75.48.34.86.76,1.14,1.28.28.51.42,1.12.42,1.82v6.82c0,.34.09.61.27.81.18.2.4.3.66.3.06,0,.11,0,.16-.01s.11-.02.18-.04v1.58ZM208.86,73.81c-.28.28-.65.52-1.1.7s-.93.34-1.44.49-1.03.29-1.55.43c-.52.14-.99.3-1.41.49-.42.19-.77.42-1.03.69-.26.27-.4.62-.4,1.03,0,.37.07.69.2.95.14.26.31.47.53.64.22.17.47.29.75.37.28.08.57.12.86.12.84,0,1.66-.24,2.46-.73.8-.49,1.51-1.23,2.12-2.23v-2.96Z"/>
      <path class="cls-1" d="M217.62,64.28v3.66h2.45v1.63h-2.45v8.65c0,.28.04.53.12.72s.18.35.31.47c.13.12.29.2.47.25s.38.07.59.07c.26,0,.53-.02.8-.07s.5-.09.7-.14v1.56c-.24.07-.54.14-.92.21-.38.07-.77.11-1.17.11-.34,0-.69-.05-1.04-.14-.35-.09-.66-.23-.94-.43s-.5-.46-.67-.77c-.17-.32-.26-.7-.26-1.16v-9.32h-2.13v-1.63h2.13v-3.66h2.02Z"/>
      <path class="cls-1" d="M224.57,74.86c0,.61.12,1.2.33,1.78.21.58.5,1.1.87,1.56s.8.82,1.3,1.1c.5.28,1.04.42,1.62.42,1.97,0,3.27-.86,3.91-2.59h1.85c-.15.67-.42,1.28-.78,1.8-.37.53-.81.97-1.33,1.34-.52.37-1.09.65-1.72.84-.63.19-1.27.28-1.93.28-.95,0-1.81-.19-2.58-.58-.77-.39-1.42-.91-1.96-1.56s-.96-1.4-1.25-2.25c-.3-.85-.44-1.74-.44-2.68,0-.87.15-1.71.44-2.51.29-.8.71-1.51,1.25-2.13.54-.61,1.19-1.1,1.96-1.46s1.63-.54,2.58-.54,1.76.17,2.5.5c.74.33,1.37.79,1.9,1.36.53.58.93,1.25,1.21,2.04.28.78.42,1.62.42,2.52v.76h-10.15ZM232.63,73.38c-.02-.55-.12-1.07-.32-1.56s-.47-.91-.82-1.27c-.35-.36-.77-.65-1.27-.85-.5-.21-1.06-.31-1.68-.31-.56,0-1.08.11-1.57.34s-.9.52-1.25.89c-.35.37-.63.8-.84,1.28s-.31.97-.32,1.48h8.06Z"/>
      <path class="cls-1" d="M258.39,68.19c0,.45-.06.89-.17,1.32-.11.43-.28.84-.51,1.23-.23.38-.51.74-.84,1.06-.33.32-.72.6-1.17.83.5.12.91.3,1.22.55s.56.53.74.86c.18.32.3.68.37,1.06s.1.78.1,1.17v2.72c0,.39.06.77.17,1.13.11.37.26.7.43,1h-2.19c-.09-.14-.16-.3-.21-.47-.05-.18-.09-.36-.12-.55-.03-.19-.05-.37-.06-.55,0-.18-.01-.33-.01-.46v-2.88c0-.34-.06-.69-.18-1.03-.12-.34-.32-.65-.6-.91s-.64-.48-1.08-.65-.99-.25-1.62-.25h-5.75v7.75h-2.02v-18.08h7.77c.93,0,1.75.15,2.46.46.71.31,1.31.7,1.8,1.19s.85,1.04,1.1,1.65.37,1.23.37,1.84ZM246.91,71.68h5.75c.5,0,.97-.09,1.42-.27.44-.18.84-.43,1.18-.75.34-.32.61-.69.81-1.11s.3-.88.3-1.37-.09-.93-.28-1.34c-.19-.41-.45-.77-.78-1.07-.33-.3-.72-.54-1.18-.71-.45-.17-.94-.25-1.47-.25h-5.75v6.88Z"/>
      <path class="cls-1" d="M264.24,74.86c0,.61.12,1.2.33,1.78.21.58.5,1.1.87,1.56s.8.82,1.3,1.1c.5.28,1.04.42,1.62.42,1.97,0,3.27-.86,3.91-2.59h1.85c-.15.67-.42,1.28-.78,1.8-.37.53-.81.97-1.33,1.34-.52.37-1.09.65-1.72.84-.63.19-1.27.28-1.93.28-.95,0-1.81-.19-2.58-.58-.77-.39-1.42-.91-1.96-1.56s-.96-1.4-1.25-2.25c-.3-.85-.44-1.74-.44-2.68,0-.87.15-1.71.44-2.51.29-.8.71-1.51,1.25-2.13.54-.61,1.19-1.1,1.96-1.46s1.63-.54,2.58-.54,1.76.17,2.5.5c.74.33,1.37.79,1.9,1.36.53.58.93,1.25,1.21,2.04.28.78.42,1.62.42,2.52v.76h-10.15ZM272.3,73.38c-.02-.55-.12-1.07-.32-1.56s-.47-.91-.82-1.27c-.35-.36-.77-.65-1.27-.85-.5-.21-1.06-.31-1.68-.31-.56,0-1.08.11-1.57.34s-.9.52-1.25.89c-.35.37-.63.8-.84,1.28s-.31.97-.32,1.48h8.06Z"/>
      <path class="cls-1" d="M278.27,77.13c0,.47.09.86.26,1.19.16.33.39.6.67.8s.61.36.99.45c.38.1.79.14,1.25.14.36,0,.75-.03,1.15-.1.41-.06.77-.17,1.11-.33s.61-.37.83-.64c.22-.27.33-.61.33-1.01,0-.37-.12-.69-.35-.95-.24-.26-.55-.49-.93-.68-.38-.19-.82-.37-1.31-.54-.49-.16-.99-.33-1.5-.5-.51-.17-1.01-.35-1.5-.56-.49-.2-.93-.45-1.31-.73-.38-.28-.69-.62-.93-1.01-.24-.39-.35-.86-.35-1.4,0-.58.13-1.09.4-1.54s.62-.82,1.06-1.13c.44-.31.95-.54,1.52-.7.57-.16,1.17-.24,1.78-.24.7,0,1.35.08,1.95.24.6.16,1.12.4,1.57.71.45.32.81.71,1.08,1.18.27.47.42,1.01.44,1.63h-2.07c-.05-.34-.15-.65-.32-.91-.17-.26-.39-.47-.65-.64s-.57-.29-.91-.38c-.34-.08-.7-.12-1.08-.12-.45,0-.84.05-1.18.16-.34.1-.63.24-.86.42-.23.18-.41.38-.52.62-.12.23-.18.48-.18.73,0,.34.12.63.35.87s.55.47.93.67c.38.2.82.38,1.31.55.49.17.99.34,1.5.52.51.18,1.01.37,1.5.58.49.21.93.45,1.31.72.38.27.69.59.93.95s.35.79.35,1.28c0,.71-.15,1.31-.44,1.81-.29.5-.69.9-1.19,1.22-.5.31-1.08.55-1.74.69-.66.15-1.35.22-2.06.22s-1.36-.09-1.99-.27c-.63-.18-1.18-.44-1.65-.8-.47-.35-.85-.8-1.14-1.33s-.44-1.16-.47-1.87h2.09Z"/>
      <path class="cls-1" d="M291.16,74.86c0,.61.12,1.2.33,1.78.21.58.5,1.1.87,1.56s.8.82,1.3,1.1c.5.28,1.04.42,1.62.42,1.97,0,3.27-.86,3.91-2.59h1.85c-.15.67-.42,1.28-.78,1.8-.37.53-.81.97-1.33,1.34-.52.37-1.09.65-1.72.84-.63.19-1.27.28-1.93.28-.95,0-1.81-.19-2.58-.58-.77-.39-1.42-.91-1.96-1.56-.54-.65-.96-1.4-1.25-2.25-.29-.85-.44-1.74-.44-2.68,0-.87.15-1.71.44-2.51.29-.8.71-1.51,1.25-2.13.54-.61,1.19-1.1,1.96-1.46.77-.36,1.63-.54,2.58-.54s1.76.17,2.5.5c.74.33,1.37.79,1.9,1.36.53.58.93,1.25,1.21,2.04.28.78.42,1.62.42,2.52v.76h-10.15ZM299.23,73.38c-.02-.55-.13-1.07-.32-1.56-.2-.48-.47-.91-.82-1.27-.35-.36-.77-.65-1.27-.85-.5-.21-1.06-.31-1.68-.31-.56,0-1.08.11-1.57.34-.48.22-.9.52-1.25.89-.35.37-.63.8-.84,1.28-.2.48-.31.97-.32,1.48h8.07Z"/>
      <path class="cls-1" d="M315.64,81.23c-.13.04-.29.08-.5.11-.2.03-.38.05-.51.05-.57,0-1.05-.2-1.42-.61-.38-.41-.59-1.04-.63-1.89-.44.54-.87.97-1.29,1.3-.42.33-.84.58-1.27.76-.42.18-.84.29-1.27.36-.42.06-.85.09-1.29.09-.56,0-1.09-.09-1.58-.26-.49-.17-.92-.42-1.29-.74-.37-.32-.66-.7-.87-1.15s-.31-.95-.31-1.5.13-1.03.38-1.42c.25-.39.59-.73,1.01-1.02.42-.28.9-.53,1.43-.72.53-.19,1.08-.37,1.64-.52.56-.15,1.1-.29,1.64-.43.54-.14,1.01-.29,1.44-.45s.76-.36,1.01-.58c.25-.22.38-.5.38-.82,0-.38-.08-.72-.23-1.02-.15-.3-.37-.55-.65-.75-.28-.2-.62-.36-1.02-.46-.4-.1-.84-.16-1.32-.16-.41,0-.8.05-1.17.15-.37.1-.7.24-.98.44-.28.19-.52.42-.71.7-.19.28-.31.6-.37.96h-2.1c.04-.64.21-1.21.53-1.7.32-.49.72-.91,1.21-1.24.49-.33,1.05-.59,1.67-.76s1.26-.26,1.92-.26c.71,0,1.38.08,2.01.25.63.16,1.19.42,1.67.75.48.34.86.76,1.15,1.28s.42,1.12.42,1.82v6.82c0,.34.09.61.27.81.18.2.4.3.66.3.05,0,.11,0,.16-.01.06,0,.11-.02.18-.04v1.58ZM312.36,73.81c-.28.28-.65.52-1.1.7s-.93.34-1.44.49c-.51.15-1.03.29-1.55.43-.52.14-.99.3-1.41.49s-.77.42-1.03.69c-.26.27-.4.62-.4,1.03,0,.37.07.69.2.95s.31.47.53.64.47.29.75.37c.28.08.57.12.86.12.84,0,1.66-.24,2.46-.73.8-.49,1.51-1.23,2.12-2.23v-2.96Z"/>
      <path class="cls-1" d="M318.46,67.93h2.02l-.08,2.19c.43-.72.93-1.26,1.51-1.64.58-.38,1.25-.56,2.02-.56.06,0,.15,0,.26,0s.23.01.35.03c.12.01.24.03.35.05s.2.04.27.07v1.96c-.21-.07-.45-.12-.71-.16s-.46-.06-.59-.06c-.54,0-1.01.1-1.43.28-.42.19-.77.45-1.06.77-.29.32-.51.7-.67,1.11s-.23.86-.23,1.32v7.83h-2.02v-13.2Z"/>
      <path class="cls-1" d="M335.93,71.9c-.28-.92-.69-1.56-1.24-1.94-.55-.38-1.26-.57-2.15-.57-.63,0-1.19.13-1.68.4-.49.27-.9.63-1.23,1.08-.33.45-.59.97-.76,1.56-.18.59-.27,1.2-.27,1.84s.09,1.32.27,1.97c.18.65.43,1.23.77,1.74.33.51.74.92,1.23,1.24s1.03.47,1.65.47c.49,0,.93-.08,1.31-.25.38-.16.71-.39.99-.67.28-.29.51-.62.69-1s.31-.79.4-1.22h2.22c-.1.75-.3,1.43-.61,2.03-.3.6-.7,1.11-1.19,1.53-.49.42-1.06.74-1.72.96s-1.39.33-2.19.33c-.68,0-1.3-.1-1.84-.3-.55-.2-1.04-.47-1.47-.81-.43-.34-.81-.74-1.13-1.21-.32-.46-.58-.96-.78-1.48-.2-.53-.36-1.07-.46-1.65-.1-.57-.15-1.13-.15-1.68,0-.91.14-1.76.42-2.56.28-.8.68-1.5,1.21-2.09s1.15-1.07,1.89-1.41c.74-.35,1.56-.52,2.48-.52.79,0,1.5.11,2.12.32.62.21,1.16.51,1.62.88.46.38.83.82,1.12,1.34s.5,1.08.63,1.68h-2.14Z"/>
      <path class="cls-1" d="M343.23,62.96v6.79c.28-.4.59-.73.93-.99.33-.26.69-.48,1.07-.64.38-.16.77-.27,1.19-.34.42-.07.84-.1,1.28-.1.65,0,1.25.1,1.8.3s1.01.47,1.41.82c.4.34.7.76.92,1.23.22.48.33.99.33,1.54v9.57h-2.02v-9.23c0-.45-.08-.83-.24-1.15-.16-.32-.37-.58-.64-.78s-.58-.35-.93-.44c-.35-.09-.72-.14-1.1-.14-.47,0-.95.09-1.42.28s-.91.44-1.29.77c-.38.33-.69.71-.93,1.15-.24.44-.36.92-.36,1.43v8.12h-2.02v-18.17h2.02Z"/>
      <path class="cls-1" d="M364.23,72.06c0,1.24.17,2.35.53,3.32.35.97.82,1.78,1.42,2.45.6.67,1.3,1.17,2.09,1.52.79.35,1.63.52,2.51.52.52,0,1.03-.08,1.53-.25s.98-.4,1.44-.69c.46-.29.88-.65,1.27-1.06s.73-.86,1.02-1.34.52-.99.69-1.52c.17-.54.26-1.08.28-1.63h-5.9v-1.7h7.82v9.45h-1.24l-.6-3.21c-.32.47-.71.92-1.18,1.35s-.98.83-1.53,1.17c-.55.35-1.14.62-1.74.83s-1.21.31-1.81.31c-1.33,0-2.52-.24-3.58-.73-1.06-.49-1.97-1.16-2.71-2.01-.75-.85-1.32-1.86-1.72-3.02-.4-1.16-.6-2.42-.6-3.77,0-.79.08-1.57.25-2.34.17-.77.42-1.51.75-2.21.33-.7.74-1.35,1.23-1.95.49-.6,1.04-1.12,1.67-1.56s1.32-.78,2.09-1.03,1.6-.38,2.49-.38c1.13,0,2.13.14,3.02.42.89.28,1.66.67,2.32,1.17s1.22,1.1,1.66,1.79c.44.69.78,1.45,1.03,2.28h-2.14c-.49-1.35-1.22-2.35-2.17-2.99-.96-.65-2.2-.97-3.71-.97-.94,0-1.81.21-2.6.62-.79.42-1.47.98-2.04,1.69-.57.71-1.02,1.53-1.33,2.48-.32.94-.48,1.94-.48,2.99Z"/>
      <path class="cls-1" d="M384.86,74.86c0,.61.12,1.2.33,1.78.21.58.5,1.1.87,1.56s.8.82,1.3,1.1c.5.28,1.04.42,1.62.42,1.97,0,3.27-.86,3.91-2.59h1.85c-.15.67-.42,1.28-.78,1.8-.37.53-.81.97-1.33,1.34-.52.37-1.09.65-1.72.84-.63.19-1.27.28-1.93.28-.95,0-1.81-.19-2.58-.58-.77-.39-1.42-.91-1.96-1.56-.54-.65-.96-1.4-1.25-2.25-.29-.85-.44-1.74-.44-2.68,0-.87.15-1.71.44-2.51.29-.8.71-1.51,1.25-2.13.54-.61,1.19-1.1,1.96-1.46.77-.36,1.63-.54,2.58-.54s1.76.17,2.5.5c.74.33,1.37.79,1.9,1.36.53.58.93,1.25,1.21,2.04.28.78.42,1.62.42,2.52v.76h-10.15ZM392.93,73.38c-.02-.55-.13-1.07-.32-1.56-.2-.48-.47-.91-.82-1.27-.35-.36-.77-.65-1.27-.85-.5-.21-1.06-.31-1.68-.31-.56,0-1.08.11-1.57.34-.48.22-.9.52-1.25.89-.35.37-.63.8-.84,1.28-.2.48-.31.97-.32,1.48h8.07Z"/>
      <path class="cls-1" d="M398.13,67.93h2.02v1.94c.7-.77,1.46-1.33,2.28-1.68.82-.35,1.66-.52,2.53-.52.65,0,1.22.09,1.73.27s.94.44,1.29.78c.35.34.63.75.81,1.23s.28,1.02.28,1.61v9.57h-2.02v-9.32c0-.45-.06-.83-.17-1.14-.11-.31-.28-.56-.49-.74-.21-.19-.48-.33-.78-.42-.31-.09-.65-.13-1.03-.13-.62,0-1.2.1-1.74.31-.54.21-1.01.48-1.41.82-.4.34-.71.73-.94,1.18-.23.45-.34.9-.34,1.38v8.05h-2.02v-13.2Z"/>
      <path class="cls-1" d="M414.36,74.86c0,.61.12,1.2.33,1.78.21.58.5,1.1.87,1.56s.8.82,1.3,1.1c.5.28,1.04.42,1.62.42,1.97,0,3.27-.86,3.91-2.59h1.85c-.15.67-.42,1.28-.78,1.8-.37.53-.81.97-1.33,1.34-.52.37-1.09.65-1.72.84-.63.19-1.27.28-1.93.28-.95,0-1.81-.19-2.58-.58-.77-.39-1.42-.91-1.96-1.56-.54-.65-.96-1.4-1.25-2.25-.29-.85-.44-1.74-.44-2.68,0-.87.15-1.71.44-2.51.29-.8.71-1.51,1.25-2.13.54-.61,1.19-1.1,1.96-1.46.77-.36,1.63-.54,2.58-.54s1.76.17,2.5.5c.74.33,1.37.79,1.9,1.36.53.58.93,1.25,1.21,2.04.28.78.42,1.62.42,2.52v.76h-10.15ZM422.42,73.38c-.02-.55-.13-1.07-.32-1.56-.2-.48-.47-.91-.82-1.27-.35-.36-.77-.65-1.27-.85-.5-.21-1.06-.31-1.68-.31-.56,0-1.08.11-1.57.34-.48.22-.9.52-1.25.89-.35.37-.63.8-.84,1.28-.2.48-.31.97-.32,1.48h8.07Z"/>
      <path class="cls-1" d="M438.84,81.23c-.13.04-.29.08-.5.11-.2.03-.38.05-.51.05-.57,0-1.05-.2-1.42-.61-.38-.41-.59-1.04-.63-1.89-.44.54-.87.97-1.29,1.3-.42.33-.84.58-1.27.76-.42.18-.84.29-1.27.36-.42.06-.85.09-1.29.09-.56,0-1.09-.09-1.58-.26-.49-.17-.92-.42-1.29-.74-.37-.32-.66-.7-.87-1.15s-.31-.95-.31-1.5.13-1.03.38-1.42c.25-.39.59-.73,1.01-1.02.42-.28.9-.53,1.43-.72.53-.19,1.08-.37,1.64-.52.56-.15,1.1-.29,1.64-.43.54-.14,1.01-.29,1.44-.45s.76-.36,1.01-.58c.25-.22.38-.5.38-.82,0-.38-.08-.72-.23-1.02-.15-.3-.37-.55-.65-.75-.28-.2-.62-.36-1.02-.46-.4-.1-.84-.16-1.32-.16-.41,0-.8.05-1.17.15-.37.1-.7.24-.98.44-.28.19-.52.42-.71.7-.19.28-.31.6-.37.96h-2.1c.04-.64.21-1.21.53-1.7.32-.49.72-.91,1.21-1.24.49-.33,1.05-.59,1.67-.76s1.26-.26,1.92-.26c.71,0,1.38.08,2.01.25.63.16,1.19.42,1.67.75.48.34.86.76,1.15,1.28s.42,1.12.42,1.82v6.82c0,.34.09.61.27.81.18.2.4.3.66.3.05,0,.11,0,.16-.01.06,0,.11-.02.18-.04v1.58ZM435.55,73.81c-.28.28-.65.52-1.1.7s-.93.34-1.44.49c-.51.15-1.03.29-1.55.43-.52.14-.99.3-1.41.49s-.77.42-1.03.69c-.26.27-.4.62-.4,1.03,0,.37.07.69.2.95s.31.47.53.64.47.29.75.37c.28.08.57.12.86.12.84,0,1.66-.24,2.46-.73.8-.49,1.51-1.23,2.12-2.23v-2.96Z"/>
      <path class="cls-1" d="M443.67,62.96v18.17h-2.02v-18.17h2.02Z"/>
      <path class="cls-1" d="M446.85,74.57c0-.93.13-1.82.4-2.65s.66-1.56,1.19-2.19,1.17-1.13,1.94-1.5c.77-.37,1.65-.56,2.64-.56s1.88.19,2.66.56c.77.37,1.42.87,1.96,1.5.53.63.93,1.36,1.21,2.19.28.83.42,1.72.42,2.65s-.14,1.8-.42,2.63c-.28.83-.68,1.55-1.21,2.17-.53.62-1.18,1.11-1.96,1.48-.77.36-1.66.54-2.66.54s-1.87-.18-2.64-.54c-.77-.36-1.41-.86-1.94-1.48s-.92-1.35-1.19-2.17c-.27-.82-.4-1.7-.4-2.63ZM448.86,74.57c0,.69.1,1.35.29,1.96.19.62.46,1.16.82,1.63.35.47.79.85,1.3,1.12.51.28,1.09.42,1.74.42s1.23-.14,1.75-.42.97-.65,1.34-1.12c.37-.47.65-1.01.84-1.63.19-.62.29-1.27.29-1.96s-.1-1.35-.29-1.98c-.2-.63-.48-1.18-.84-1.65s-.81-.85-1.34-1.13c-.52-.28-1.11-.42-1.75-.42s-1.22.14-1.74.42c-.51.28-.95.66-1.3,1.13-.35.48-.63,1.03-.82,1.65s-.29,1.29-.29,1.98Z"/>
      <path class="cls-1" d="M473.26,81.45c0,.89-.16,1.67-.48,2.35s-.74,1.25-1.27,1.7-1.14.8-1.83,1.04-1.41.35-2.15.35c-1.28,0-2.4-.31-3.36-.95s-1.69-1.63-2.19-3.01h2.04c.37.79.85,1.37,1.42,1.72.57.35,1.27.53,2.1.53.51,0,.99-.09,1.44-.27s.84-.44,1.19-.76c.34-.32.61-.71.8-1.15.19-.45.29-.94.29-1.47v-2.51c-.23.42-.49.78-.78,1.08s-.6.54-.93.73c-.33.19-.67.33-1.02.42-.35.09-.71.13-1.06.13-.93,0-1.76-.19-2.5-.56-.74-.37-1.37-.87-1.89-1.5-.52-.63-.92-1.37-1.19-2.2-.28-.84-.42-1.72-.42-2.66s.14-1.81.42-2.64c.28-.82.67-1.54,1.17-2.16.51-.61,1.11-1.1,1.83-1.46.71-.36,1.51-.54,2.38-.54.31,0,.64.03.99.08.35.05.7.16,1.05.32.35.16.69.4,1.02.71.33.31.64.71.93,1.21v-2.06h2.02v13.52ZM471.25,74.31c-.02-.67-.11-1.31-.28-1.91-.17-.6-.41-1.12-.73-1.56s-.7-.8-1.15-1.06c-.45-.26-.96-.4-1.53-.4s-1.14.13-1.63.4-.93.63-1.29,1.09c-.36.46-.64,1-.84,1.61-.2.61-.31,1.27-.31,1.97s.1,1.36.31,1.99c.2.63.49,1.18.84,1.66.36.48.79.86,1.29,1.14.5.28,1.04.42,1.63.42s1.1-.13,1.56-.39c.46-.26.85-.62,1.17-1.07s.56-.99.72-1.59c.16-.61.25-1.26.25-1.97v-.35Z"/>
      <path class="cls-1" d="M479.37,62.96v2.24h-2.02v-2.24h2.02ZM479.37,67.93v13.2h-2.02v-13.2h2.02Z"/>
      <path class="cls-1" d="M484.23,77.13c0,.47.09.86.26,1.19.16.33.39.6.67.8s.61.36.99.45c.38.1.79.14,1.25.14.36,0,.75-.03,1.15-.1.41-.06.77-.17,1.11-.33s.61-.37.83-.64c.22-.27.33-.61.33-1.01,0-.37-.12-.69-.35-.95-.24-.26-.55-.49-.93-.68-.38-.19-.82-.37-1.31-.54-.49-.16-.99-.33-1.5-.5-.51-.17-1.01-.35-1.5-.56-.49-.2-.93-.45-1.31-.73-.38-.28-.69-.62-.93-1.01-.24-.39-.35-.86-.35-1.4,0-.58.13-1.09.4-1.54s.62-.82,1.06-1.13c.44-.31.95-.54,1.52-.7.57-.16,1.17-.24,1.78-.24.7,0,1.35.08,1.95.24.6.16,1.12.4,1.57.71.45.32.81.71,1.08,1.18.27.47.42,1.01.44,1.63h-2.07c-.05-.34-.15-.65-.32-.91-.17-.26-.39-.47-.65-.64s-.57-.29-.91-.38c-.34-.08-.7-.12-1.08-.12-.45,0-.84.05-1.18.16-.34.1-.63.24-.86.42-.23.18-.41.38-.52.62-.12.23-.18.48-.18.73,0,.34.12.63.35.87s.55.47.93.67c.38.2.82.38,1.31.55.49.17.99.34,1.5.52.51.18,1.01.37,1.5.58.49.21.93.45,1.31.72.38.27.69.59.93.95s.35.79.35,1.28c0,.71-.15,1.31-.44,1.81-.29.5-.69.9-1.19,1.22-.5.31-1.08.55-1.74.69-.66.15-1.35.22-2.06.22s-1.36-.09-1.99-.27c-.63-.18-1.18-.44-1.65-.8-.47-.35-.85-.8-1.14-1.33s-.44-1.16-.47-1.87h2.09Z"/>
      <path class="cls-1" d="M498.59,64.28v3.66h2.45v1.63h-2.45v8.65c0,.28.04.53.12.72s.18.35.31.47c.13.12.29.2.47.25s.38.07.59.07c.26,0,.53-.02.8-.07s.5-.09.7-.14v1.56c-.24.07-.54.14-.92.21-.38.07-.77.11-1.17.11-.34,0-.69-.05-1.04-.14-.35-.09-.66-.23-.94-.43s-.5-.46-.67-.77c-.17-.32-.26-.7-.26-1.16v-9.32h-2.13v-1.63h2.13v-3.66h2.02Z"/>
    </g>
  </g>
</svg>