<?xml version="1.0" encoding="UTF-8"?>
<svg id="Layer_1" data-name="Layer 1" xmlns="http://www.w3.org/2000/svg" viewBox="0 0 196.67 218.58">
  <defs>
    <style>
      .cls-1 {
        fill: #2d2a25;
      }
    </style>
  </defs>
  <g>
    <g>
      <path class="cls-1" d="M78.26,210.26c-.81-.81-1.56-1.66-2.25-2.53-1.17-1.48-2.17-3.05-3-4.69-1.81-3.57-2.82-7.45-3.02-11.36-.03-.46-.04-.92-.04-1.37,0-1.11.06-2.21.18-3.32.05-.46.11-.92.19-1.37.65-4,2.15-7.88,4.51-11.36.99-1.46,2.14-2.85,3.43-4.14l.55-.55,11.53-11.53h0l8.25-8.25-.03-.03,11.83-11.83c2.15-2.15,3.61-4.73,4.36-7.47.13-.46.23-.91.32-1.37.21-1.09.31-2.21.3-3.32,0-.46-.02-.92-.07-1.37-.34-3.85-1.98-7.61-4.92-10.55-.28-.28-.57-.55-.86-.8-6.4-5.58-15.98-5.58-22.37,0-.29.25-.58.52-.86.8-2.95,2.95-4.58,6.71-4.92,10.55-.04.46-.06.92-.07,1.37,0,1.11.09,2.22.3,3.32.09.46.2.92.32,1.37.76,2.74,2.21,5.32,4.36,7.47l4.05,4.05-8.03,8.03-3.5-3.51-.55-.55c-1.3-1.3-2.44-2.68-3.43-4.14-2.37-3.47-3.87-7.36-4.52-11.36-.08-.46-.14-.92-.19-1.37-.13-1.1-.19-2.21-.18-3.32,0-.46.01-.92.04-1.37.2-3.91,1.21-7.79,3.03-11.36.83-1.64,1.83-3.21,3-4.69.69-.88,1.44-1.72,2.25-2.53,11.09-11.09,29.07-11.09,40.16,0,.81.81,1.56,1.66,2.25,2.53,1.17,1.48,2.17,3.05,3,4.69,1.81,3.57,2.82,7.45,3.02,11.36.03.46.04.92.04,1.37,0,1.11-.06,2.21-.18,3.32-.05.46-.11.92-.19,1.37-.65,4-2.15,7.88-4.51,11.36-.99,1.46-2.14,2.85-3.43,4.14l-.55.55-11.53,11.53h0l-8.25,8.25.03.03-11.83,11.83c-2.15,2.15-3.61,4.73-4.36,7.47-.13.46-.23.91-.32,1.37-.21,1.09-.31,2.21-.3,3.32,0,.46.02.92.07,1.37.34,3.85,1.98,7.61,4.92,10.55.28.28.57.55.86.8,6.4,5.58,15.98,5.58,22.37,0,.29-.25.58-.52.86-.8,2.95-2.95,4.58-6.71,4.92-10.55.04-.46.06-.92.07-1.37,0-1.11-.09-2.22-.3-3.32-.09-.46-.2-.92-.32-1.37-.76-2.74-2.21-5.32-4.36-7.47l-4.05-4.05,8.03-8.03,3.5,3.51.55.55c1.3,1.3,2.44,2.68,3.43,4.14,2.37,3.47,3.87,7.36,4.52,11.36.08.46.14.92.19,1.37.13,1.1.19,2.21.18,3.32,0,.46-.01.92-.04,1.37-.2,3.91-1.21,7.79-3.03,11.36-.83,1.64-1.83,3.21-3,4.69-.69.88-1.44,1.72-2.25,2.53-11.09,11.09-29.07,11.09-40.16,0Z"/>
      <path class="cls-1" d="M86.08,191.68h24.5c-.32,2.73-1.55,5.26-3.52,7.24-4.81,4.81-12.64,4.81-17.46,0-1.97-1.98-3.2-4.5-3.52-7.24Z"/>
      <path class="cls-1" d="M98.33,141.8h0c-.98,0-1.91-.39-2.6-1.08l-6.13-6.13c-1.21-1.21-2.13-2.61-2.74-4.15h22.93c-.61,1.54-1.53,2.95-2.74,4.15l-6.13,6.13c-.69.69-1.62,1.08-2.6,1.08Z"/>
    </g>
    <path class="cls-1" d="M99.77,0c-1.36.85-13.6,8.79-14.89,24.22-1.18,14.12,7.73,23.48,9.06,24.83,1.09-3.77,2.11-8.14,2.82-13.03.63-4.27.91-8.22,1-11.75.84,2.73,1.65,6.37,1.81,10.68.24,6.25-.97,11.35-2.06,14.69.7-.44,14.86-9.75,14.37-26.5-.41-14-10.73-22.1-12.12-23.15Z"/>
  </g>
  <g>
    <g>
      <path class="cls-1" d="M45.33,38.12c-.47,2.02-4.41,20.52,8.55,35.84,11.86,14.02,28.6,14.43,31.06,14.45-2.46-4.46-5.53-9.39-9.35-14.53-3.34-4.49-6.7-8.37-9.85-11.68,3.27,1.74,7.34,4.33,11.45,8.13,5.94,5.51,9.51,11.29,11.57,15.34.23-1.04,4.68-22.55-11.11-37.45-13.2-12.45-30.09-10.42-32.32-10.11Z"/>
      <path class="cls-1" d="M8.12,76.52c.3,2.05,3.38,20.71,21.03,30.25,16.16,8.73,31.9,3,34.19,2.12-3.91-3.25-8.57-6.73-14.01-10.11-4.75-2.96-9.29-5.35-13.43-7.28,3.68.42,8.42,1.35,13.63,3.39,7.54,2.96,12.97,7.04,16.37,10.07-.16-1.06-3.87-22.71-24.01-30.81-16.83-6.77-31.82,1.28-33.78,2.38Z"/>
      <path class="cls-1" d="M39.01,167.51c1.2.2,12.13,1.84,20.6-6.27,7.75-7.42,7.4-17.21,7.32-18.64-2.51,1.59-5.28,3.56-8.14,5.98-2.5,2.11-4.64,4.21-6.46,6.16.9-1.97,2.26-4.44,4.33-6.97,3-3.67,6.25-5.95,8.54-7.3-.62-.1-13.33-1.92-21.45,7.83-6.79,8.15-5,17.93-4.74,19.22Z"/>
      <path class="cls-1" d="M0,124.47c.85,1.36,8.79,13.6,24.22,14.89,14.12,1.18,23.48-7.73,24.83-9.06-3.77-1.09-8.14-2.11-13.03-2.82-4.27-.63-8.22-.91-11.75-1,2.73-.84,6.37-1.65,10.68-1.81,6.25-.24,11.35.97,14.69,2.06-.44-.7-9.75-14.86-26.5-14.37-14,.41-22.1,10.73-23.15,12.12Z"/>
    </g>
    <g>
      <path class="cls-1" d="M151.34,38.12c.47,2.02,4.41,20.52-8.55,35.84-11.86,14.02-28.6,14.43-31.06,14.45,2.46-4.46,5.53-9.39,9.35-14.53,3.34-4.49,6.7-8.37,9.85-11.68-3.27,1.74-7.34,4.33-11.45,8.13-5.94,5.51-9.51,11.29-11.57,15.34-.23-1.04-4.68-22.55,11.11-37.45,13.2-12.45,30.09-10.42,32.32-10.11Z"/>
      <path class="cls-1" d="M188.55,76.52c-.3,2.05-3.38,20.71-21.03,30.25-16.16,8.73-31.9,3-34.19,2.12,3.91-3.25,8.57-6.73,14.01-10.11,4.75-2.96,9.29-5.35,13.43-7.28-3.68.42-8.42,1.35-13.63,3.39-7.54,2.96-12.97,7.04-16.37,10.07.16-1.06,3.87-22.71,24.01-30.81,16.83-6.77,31.82,1.28,33.78,2.38Z"/>
      <path class="cls-1" d="M157.65,167.51c-1.2.2-12.13,1.84-20.6-6.27-7.75-7.42-7.4-17.21-7.32-18.64,2.51,1.59,5.28,3.56,8.14,5.98,2.5,2.11,4.64,4.21,6.46,6.16-.9-1.97-2.26-4.44-4.33-6.97-3-3.67-6.25-5.95-8.54-7.3.62-.1,13.33-1.92,21.45,7.83,6.79,8.15,5,17.93,4.74,19.22Z"/>
      <path class="cls-1" d="M196.67,124.47c-.85,1.36-8.79,13.6-24.22,14.89-14.12,1.18-23.48-7.73-24.83-9.06,3.77-1.09,8.14-2.11,13.03-2.82,4.27-.63,8.22-.91,11.75-1-2.73-.84-6.37-1.65-10.68-1.81-6.25-.24-11.35.97-14.69,2.06.44-.7,9.75-14.86,26.5-14.37,14,.41,22.1,10.73,23.15,12.12Z"/>
    </g>
  </g>
</svg>